<?xml version="1.0" encoding="UTF-8" standalone="no"?>
<!-- Created with Inkscape (http://www.inkscape.org/) -->

<svg
   xmlns:dc="http://purl.org/dc/elements/1.1/"
   xmlns:cc="http://creativecommons.org/ns#"
   xmlns:rdf="http://www.w3.org/1999/02/22-rdf-syntax-ns#"
   xmlns:svg="http://www.w3.org/2000/svg"
   xmlns="http://www.w3.org/2000/svg"
   xmlns:sodipodi="http://sodipodi.sourceforge.net/DTD/sodipodi-0.dtd"
   xmlns:inkscape="http://www.inkscape.org/namespaces/inkscape"
   width="297mm"
   height="210mm"
   viewBox="0 0 1052.3622 744.09448"
   id="svg2"
   version="1.1"
   inkscape:version="0.91 r13725"
   sodipodi:docname="GroundSprites.svg"
   enable-background="new">
  <defs
     id="defs4">
    <inkscape:path-effect
       fuse_tolerance="0"
       vertical_pattern="false"
       prop_units="false"
       tang_offset="0"
       normal_offset="0"
       spacing="0"
       scale_y_rel="false"
       prop_scale="1"
       copytype="single_stretched"
       pattern="m -19.757986,149.70172 c 0,-2.76 2.24,-5 5,-5 2.76,0 4.9999999,2.24 4.9999999,5 0,2.76 -2.2399999,5 -4.9999999,5 -2.76,0 -5,-2.24 -5,-5 z"
       is_visible="true"
       id="path-effect4607"
       effect="skeletal" />
    <inkscape:path-effect
       fuse_tolerance="0"
       vertical_pattern="false"
       prop_units="false"
       tang_offset="0"
       normal_offset="0"
       spacing="0"
       scale_y_rel="false"
       prop_scale="1"
       copytype="single_stretched"
       pattern="m -267.85714,14.285714 c 0,-2.76 2.24,-4.9999996 5,-4.9999996 2.76,0 5,2.2399996 5,4.9999996 0,2.76 -2.24,5 -5,5 -2.76,0 -5,-2.24 -5,-5 z"
       is_visible="true"
       id="path-effect4448"
       effect="skeletal" />
    <inkscape:path-effect
       fuse_tolerance="0"
       vertical_pattern="false"
       prop_units="false"
       tang_offset="0"
       normal_offset="0"
       spacing="0"
       scale_y_rel="false"
       prop_scale="1"
       copytype="single_stretched"
       pattern="m -169.99999,-130 c 0,-2.76 2.24,-5 5,-5 2.76,0 5,2.24 5,5 0,2.76 -2.24,5 -5,5 -2.76,0 -5,-2.24 -5,-5 z"
       is_visible="true"
       id="path-effect4444"
       effect="skeletal" />
    <inkscape:path-effect
       fuse_tolerance="0"
       vertical_pattern="false"
       prop_units="false"
       tang_offset="0"
       normal_offset="0"
       spacing="0"
       scale_y_rel="false"
       prop_scale="1"
       copytype="single_stretched"
       pattern="m -200,-47.142855 c 0,-2.76 2.24,-5 5,-5 2.76,0 5,2.24 5,5 0,2.76 -2.24,5 -5,5 -2.76,0 -5,-2.24 -5,-5 z"
       is_visible="true"
       id="path-effect4440"
       effect="skeletal" />
    <inkscape:path-effect
       fuse_tolerance="0"
       vertical_pattern="false"
       prop_units="false"
       tang_offset="0"
       normal_offset="0"
       spacing="0"
       scale_y_rel="false"
       prop_scale="1"
       copytype="single_stretched"
       pattern="m -204.28571,90.71429 c 0,-2.76 2.24,-5 5,-5 2.76,0 5,2.24 5,5 0,2.76 -2.24,5 -5,5 -2.76,0 -5,-2.24 -5,-5 z"
       is_visible="true"
       id="path-effect4436"
       effect="skeletal" />
    <inkscape:path-effect
       fuse_tolerance="0"
       vertical_pattern="false"
       prop_units="false"
       tang_offset="0"
       normal_offset="0"
       spacing="0"
       scale_y_rel="false"
       prop_scale="1"
       copytype="single_stretched"
       pattern="m -7.857142,-114.28572 c 0,-2.76 2.239997,-5 4.999997,-5 2.76000002,0 5,2.24 5,5 0,2.76 -2.23999998,5 -5,5 -2.76,0 -4.999997,-2.24 -4.999997,-5 z"
       is_visible="true"
       id="path-effect4432"
       effect="skeletal" />
    <inkscape:path-effect
       fuse_tolerance="0"
       vertical_pattern="false"
       prop_units="false"
       tang_offset="0"
       normal_offset="0"
       spacing="0"
       scale_y_rel="false"
       prop_scale="1"
       copytype="single_stretched"
       pattern="m 16.428563,-84.999999 c 0,-2.759997 2.24,-4.999997 5,-4.999997 2.76,0 5,2.24 5,4.999997 0,2.76 -2.24,5 -5,5 -2.76,0 -5,-2.24 -5,-5 z"
       is_visible="true"
       id="path-effect4428"
       effect="skeletal" />
    <inkscape:path-effect
       fuse_tolerance="0"
       vertical_pattern="false"
       prop_units="false"
       tang_offset="0"
       normal_offset="0"
       spacing="0"
       scale_y_rel="false"
       prop_scale="1"
       copytype="single_stretched"
       pattern="m -13.571425,85.714282 c 0,-2.76 2.24,-5 4.9999999,-5 2.76,0 5,2.24 5,5 0,2.76 -2.24,5 -5,5 -2.7599999,0 -4.9999999,-2.24 -4.9999999,-5 z"
       is_visible="true"
       id="path-effect4424"
       effect="skeletal" />
    <inkscape:path-effect
       fuse_tolerance="0"
       vertical_pattern="false"
       prop_units="false"
       tang_offset="0"
       normal_offset="0"
       spacing="0"
       scale_y_rel="false"
       prop_scale="1"
       copytype="single_stretched"
       pattern="m -132.85713,2.8571385 c 0,-2.75999996 2.24,-5 5,-5 2.76,0 5,2.24000004 5,5 0,2.76 -2.24,5 -5,5 -2.76,0 -5,-2.24 -5,-5 z"
       is_visible="true"
       id="path-effect4420"
       effect="skeletal" />
    <inkscape:path-effect
       effect="skeletal"
       id="path-effect4416"
       is_visible="true"
       pattern="M 0,5 C 0,2.24 2.24,0 5,0 7.76,0 10,2.24 10,5 10,7.76 7.76,10 5,10 2.24,10 0,7.76 0,5 Z"
       copytype="single_stretched"
       prop_scale="1"
       scale_y_rel="false"
       spacing="0"
       normal_offset="0"
       tang_offset="0"
       prop_units="false"
       vertical_pattern="false"
       fuse_tolerance="0" />
    <inkscape:path-effect
       effect="skeletal"
       id="path-effect4412"
       is_visible="true"
       pattern="m 217.14285,-9.2857154 c 0,-2.7599996 2.24,-4.9999996 5,-4.9999996 2.76,0 5,2.24 5,4.9999996 0,2.76 -2.24,5 -5,5 -2.76,0 -5,-2.24 -5,-5 z"
       copytype="single_stretched"
       prop_scale="1"
       scale_y_rel="false"
       spacing="0"
       normal_offset="0"
       tang_offset="0"
       prop_units="false"
       vertical_pattern="false"
       fuse_tolerance="0" />
    <inkscape:path-effect
       effect="skeletal"
       id="path-effect4408"
       is_visible="true"
       pattern="m 202.85714,-83.57143 c 0,-2.76 2.24,-5 5,-5 2.76,0 5,2.24 5,5 0,2.76 -2.24,5 -5,5 -2.76,0 -5,-2.24 -5,-5 z"
       copytype="single_stretched"
       prop_scale="1"
       scale_y_rel="false"
       spacing="0"
       normal_offset="0"
       tang_offset="0"
       prop_units="false"
       vertical_pattern="false"
       fuse_tolerance="0" />
    <inkscape:path-effect
       effect="skeletal"
       id="path-effect4404"
       is_visible="true"
       pattern="m 262.14285,53.57143 c 0,-2.76 2.24,-5 5,-5 2.76,0 5,2.24 5,5 0,2.76 -2.24,5 -5,5 -2.76,0 -5,-2.24 -5,-5 z"
       copytype="single_stretched"
       prop_scale="1"
       scale_y_rel="false"
       spacing="0"
       normal_offset="0"
       tang_offset="0"
       prop_units="false"
       vertical_pattern="false"
       fuse_tolerance="0" />
    <inkscape:path-effect
       effect="skeletal"
       id="path-effect4400"
       is_visible="true"
       pattern="m 260,-11.428575 c 0,-2.76 2.24,-5 5,-5 2.76,0 5,2.24 5,5 0,2.7599996 -2.24,4.9999996 -5,4.9999996 -2.76,0 -5,-2.24 -5,-4.9999996 z"
       copytype="single_stretched"
       prop_scale="1"
       scale_y_rel="false"
       spacing="0"
       normal_offset="0"
       tang_offset="0"
       prop_units="false"
       vertical_pattern="false"
       fuse_tolerance="0" />
    <inkscape:path-effect
       effect="skeletal"
       id="path-effect4396"
       is_visible="true"
       pattern="m 284.28571,-94.285713 c 0,-2.76 2.24,-5 5,-5 2.76,0 5,2.24 5,5 0,2.76 -2.24,5 -5,5 -2.76,0 -5,-2.24 -5,-5 z"
       copytype="single_stretched"
       prop_scale="1"
       scale_y_rel="false"
       spacing="0"
       normal_offset="0"
       tang_offset="0"
       prop_units="false"
       vertical_pattern="false"
       fuse_tolerance="0" />
    <inkscape:path-effect
       effect="skeletal"
       id="path-effect4392"
       is_visible="true"
       pattern="m 136.42857,-56.428571 c 0,-2.76 2.24,-5 5,-5 2.76,0 5,2.24 5,5 0,2.76 -2.24,5 -5,5 -2.76,0 -5,-2.24 -5,-5 z"
       copytype="single_stretched"
       prop_scale="1"
       scale_y_rel="false"
       spacing="0"
       normal_offset="0"
       tang_offset="0"
       prop_units="false"
       vertical_pattern="false"
       fuse_tolerance="0" />
    <inkscape:path-effect
       effect="skeletal"
       id="path-effect4388"
       is_visible="true"
       pattern="m 212.14286,24.999996 c 0,-2.76 2.24,-5 5,-5 2.76,0 5,2.24 5,5 0,2.76 -2.24,5 -5,5 -2.76,0 -5,-2.24 -5,-5 z"
       copytype="single_stretched"
       prop_scale="1"
       scale_y_rel="false"
       spacing="0"
       normal_offset="0"
       tang_offset="0"
       prop_units="false"
       vertical_pattern="false"
       fuse_tolerance="0" />
    <clipPath
       clipPathUnits="userSpaceOnUse"
       id="clipPath4182">
      <rect
         mask="none"
         clip-path="none"
         y="489.42157"
         x="356.41052"
         height="200"
         width="200"
         id="rect4184"
         style="fill:#502d16;fill-opacity:1;stroke:none" />
    </clipPath>
    <clipPath
       clipPathUnits="userSpaceOnUse"
       id="clipPath4186">
      <rect
         mask="none"
         clip-path="none"
         y="489.42157"
         x="356.41052"
         height="200"
         width="200"
         id="rect4188"
         style="fill:#502d16;fill-opacity:1;stroke:none" />
    </clipPath>
    <clipPath
       clipPathUnits="userSpaceOnUse"
       id="clipPath4200">
      <rect
         transform="translate(82.142857,-20)"
         mask="none"
         clip-path="url(#clipPath4186)"
         y="489.42157"
         x="356.41052"
         height="200"
         width="200"
         id="rect4202"
         style="fill:#502d16;fill-opacity:1;stroke:none" />
    </clipPath>
    <clipPath
       clipPathUnits="userSpaceOnUse"
       id="clipPath4204">
      <rect
         transform="translate(82.142857,-20)"
         mask="none"
         clip-path="url(#clipPath4186)"
         y="489.42157"
         x="356.41052"
         height="200"
         width="200"
         id="rect4206"
         style="fill:#502d16;fill-opacity:1;stroke:none" />
    </clipPath>
    <clipPath
       clipPathUnits="userSpaceOnUse"
       id="clipPath4208">
      <rect
         transform="translate(82.142857,-20)"
         mask="none"
         clip-path="url(#clipPath4186)"
         y="489.42157"
         x="356.41052"
         height="200"
         width="200"
         id="rect4210"
         style="fill:#502d16;fill-opacity:1;stroke:none" />
    </clipPath>
    <clipPath
       clipPathUnits="userSpaceOnUse"
       id="clipPath4212">
      <rect
         mask="none"
         clip-path="url(#clipPath4186)"
         y="489.42157"
         x="356.41052"
         height="200"
         width="200"
         id="rect4214"
         style="fill:#502d16;fill-opacity:1;stroke:none" />
    </clipPath>
    <clipPath
       clipPathUnits="userSpaceOnUse"
       id="clipPath4216">
      <rect
         mask="none"
         clip-path="url(#clipPath4186)"
         y="489.42157"
         x="356.41052"
         height="200"
         width="200"
         id="rect4218"
         style="fill:#502d16;fill-opacity:1;stroke:none" />
    </clipPath>
    <clipPath
       clipPathUnits="userSpaceOnUse"
       id="clipPath4240">
      <rect
         transform="translate(62.857143,43.571429)"
         mask="none"
         clip-path="url(#clipPath4216)"
         y="489.42157"
         x="356.41052"
         height="200"
         width="200"
         id="rect4242"
         style="fill:#502d16;fill-opacity:1;stroke:none" />
    </clipPath>
    <clipPath
       clipPathUnits="userSpaceOnUse"
       id="clipPath4244">
      <rect
         transform="translate(82.142857,-20)"
         mask="none"
         clip-path="url(#clipPath4216)"
         y="489.42157"
         x="356.41052"
         height="200"
         width="200"
         id="rect4246"
         style="fill:#502d16;fill-opacity:1;stroke:none" />
    </clipPath>
    <clipPath
       clipPathUnits="userSpaceOnUse"
       id="clipPath4248">
      <rect
         transform="translate(82.142857,-20)"
         mask="none"
         clip-path="url(#clipPath4216)"
         y="489.42157"
         x="356.41052"
         height="200"
         width="200"
         id="rect4250"
         style="fill:#502d16;fill-opacity:1;stroke:none" />
    </clipPath>
    <clipPath
       clipPathUnits="userSpaceOnUse"
       id="clipPath4252">
      <rect
         transform="translate(82.142857,-20)"
         mask="none"
         clip-path="url(#clipPath4216)"
         y="489.42157"
         x="356.41052"
         height="200"
         width="200"
         id="rect4254"
         style="fill:#502d16;fill-opacity:1;stroke:none" />
    </clipPath>
    <clipPath
       clipPathUnits="userSpaceOnUse"
       id="clipPath4256">
      <rect
         mask="none"
         clip-path="url(#clipPath4216)"
         y="489.42157"
         x="356.41052"
         height="200"
         width="200"
         id="rect4258"
         style="fill:#502d16;fill-opacity:1;stroke:none" />
    </clipPath>
    <clipPath
       clipPathUnits="userSpaceOnUse"
       id="clipPath4260">
      <rect
         mask="none"
         clip-path="url(#clipPath4216)"
         y="489.42157"
         x="356.41052"
         height="200"
         width="200"
         id="rect4262"
         style="fill:#502d16;fill-opacity:1;stroke:none" />
    </clipPath>
    <clipPath
       clipPathUnits="userSpaceOnUse"
       id="clipPath4240-9">
      <rect
         transform="translate(62.857143,43.571429)"
         mask="none"
         clip-path="url(#clipPath4216)"
         y="489.42157"
         x="356.41052"
         height="200"
         width="200"
         id="rect4242-2"
         style="fill:#502d16;fill-opacity:1;stroke:none" />
    </clipPath>
    <clipPath
       clipPathUnits="userSpaceOnUse"
       id="clipPath4244-6">
      <rect
         transform="translate(82.142857,-20)"
         mask="none"
         clip-path="url(#clipPath4216)"
         y="489.42157"
         x="356.41052"
         height="200"
         width="200"
         id="rect4246-6"
         style="fill:#502d16;fill-opacity:1;stroke:none" />
    </clipPath>
    <clipPath
       clipPathUnits="userSpaceOnUse"
       id="clipPath4248-3">
      <rect
         transform="translate(82.142857,-20)"
         mask="none"
         clip-path="url(#clipPath4216)"
         y="489.42157"
         x="356.41052"
         height="200"
         width="200"
         id="rect4250-9"
         style="fill:#502d16;fill-opacity:1;stroke:none" />
    </clipPath>
    <clipPath
       clipPathUnits="userSpaceOnUse"
       id="clipPath4252-4">
      <rect
         transform="translate(82.142857,-20)"
         mask="none"
         clip-path="url(#clipPath4216)"
         y="489.42157"
         x="356.41052"
         height="200"
         width="200"
         id="rect4254-7"
         style="fill:#502d16;fill-opacity:1;stroke:none" />
    </clipPath>
    <clipPath
       clipPathUnits="userSpaceOnUse"
       id="clipPath4256-4">
      <rect
         mask="none"
         clip-path="url(#clipPath4216)"
         y="489.42157"
         x="356.41052"
         height="200"
         width="200"
         id="rect4258-7"
         style="fill:#502d16;fill-opacity:1;stroke:none" />
    </clipPath>
    <clipPath
       clipPathUnits="userSpaceOnUse"
       id="clipPath4260-0">
      <rect
         mask="none"
         clip-path="url(#clipPath4216)"
         y="489.42157"
         x="356.41052"
         height="200"
         width="200"
         id="rect4262-6"
         style="fill:#502d16;fill-opacity:1;stroke:none" />
    </clipPath>
    <inkscape:path-effect
       fuse_tolerance="0"
       vertical_pattern="false"
       prop_units="false"
       tang_offset="0"
       normal_offset="0"
       spacing="0"
       scale_y_rel="false"
       prop_scale="1"
       copytype="single_stretched"
       pattern="m 94.910254,39.492516 c 0,-2.76 2.24,-5 5,-5 2.759996,0 4.999996,2.24 4.999996,5 0,2.76 -2.24,5 -4.999996,5 -2.76,0 -5,-2.24 -5,-5 z"
       is_visible="true"
       id="path-effect4448-1"
       effect="skeletal" />
    <inkscape:path-effect
       fuse_tolerance="0"
       vertical_pattern="false"
       prop_units="false"
       tang_offset="0"
       normal_offset="0"
       spacing="0"
       scale_y_rel="false"
       prop_scale="1"
       copytype="single_stretched"
       pattern="m 302.7674,23.063948 c 0,-2.76 2.24,-5 5,-5 2.76,0 5,2.24 5,5 0,2.76 -2.24,4.999996 -5,4.999996 -2.76,0 -5,-2.239996 -5,-4.999996 z"
       is_visible="true"
       id="path-effect4444-1"
       effect="skeletal" />
    <inkscape:path-effect
       fuse_tolerance="0"
       vertical_pattern="false"
       prop_units="false"
       tang_offset="0"
       normal_offset="0"
       spacing="0"
       scale_y_rel="false"
       prop_scale="1"
       copytype="single_stretched"
       pattern="m 69.742036,175.16475 c 0,-2.76 2.24,-5 5,-5 2.76,0 5,2.24 5,5 0,2.76 -2.24,5 -5,5 -2.76,0 -5,-2.24 -5,-5 z"
       is_visible="true"
       id="path-effect4440-1"
       effect="skeletal" />
    <inkscape:path-effect
       fuse_tolerance="0"
       vertical_pattern="false"
       prop_units="false"
       tang_offset="0"
       normal_offset="0"
       spacing="0"
       scale_y_rel="false"
       prop_scale="1"
       copytype="single_stretched"
       pattern="m -14.375458,46.63538 c 0,-2.76 2.24,-5 4.9999992,-5 2.76,0 5,2.24 5,5 0,2.76 -2.24,5 -5,5 -2.7599992,0 -4.9999992,-2.24 -4.9999992,-5 z"
       is_visible="true"
       id="path-effect4436-2"
       effect="skeletal" />
    <inkscape:path-effect
       fuse_tolerance="0"
       vertical_pattern="false"
       prop_units="false"
       tang_offset="0"
       normal_offset="0"
       spacing="0"
       scale_y_rel="false"
       prop_scale="1"
       copytype="single_stretched"
       pattern="m 359.91024,8.0639328 c 0,-2.759995 2.24,-4.999995 5,-4.999995 2.76,0 5,2.24 5,4.999995 0,2.7600002 -2.24,5.0000002 -5,5.0000002 -2.76,0 -5,-2.24 -5,-5.0000002 z"
       is_visible="true"
       id="path-effect4432-8"
       effect="skeletal" />
    <inkscape:path-effect
       fuse_tolerance="0"
       vertical_pattern="false"
       prop_units="false"
       tang_offset="0"
       normal_offset="0"
       spacing="0"
       scale_y_rel="false"
       prop_scale="1"
       copytype="single_stretched"
       pattern="m 382.76738,-70.50749 c 0,-2.75999 2.24,-4.99999 5,-4.99999 2.76,0 5,2.24 5,4.99999 0,2.76 -2.24,5 -5,5 -2.76,0 -5,-2.24 -5,-5 z"
       is_visible="true"
       id="path-effect4428-9"
       effect="skeletal" />
    <inkscape:path-effect
       fuse_tolerance="0"
       vertical_pattern="false"
       prop_units="false"
       tang_offset="0"
       normal_offset="0"
       spacing="0"
       scale_y_rel="false"
       prop_scale="1"
       copytype="single_stretched"
       pattern="m -36.518322,-11.221772 c 0,-2.76 2.24,-5 5,-5 2.76,0 5,2.24 5,5 0,2.7600002 -2.24,5.0000002 -5,5.0000002 -2.76,0 -5,-2.24 -5,-5.0000002 z"
       is_visible="true"
       id="path-effect4424-9"
       effect="skeletal" />
    <inkscape:path-effect
       fuse_tolerance="0"
       vertical_pattern="false"
       prop_units="false"
       tang_offset="0"
       normal_offset="0"
       spacing="0"
       scale_y_rel="false"
       prop_scale="1"
       copytype="single_stretched"
       pattern="m 169.91026,-16.221775 c 0,-2.76 2.24,-5 5,-5 2.76,0 5,2.24 5,5 0,2.76 -2.24,5 -5,5 -2.76,0 -5,-2.24 -5,-5 z"
       is_visible="true"
       id="path-effect4420-5"
       effect="skeletal" />
    <inkscape:path-effect
       effect="skeletal"
       id="path-effect4416-2"
       is_visible="true"
       pattern="m 89.195968,30.921086 c 0,-2.76 2.24,-5 5,-5 2.76,0 5,2.24 5,5 0,2.76 -2.24,5 -5,5 -2.76,0 -5,-2.24 -5,-5 z"
       copytype="single_stretched"
       prop_scale="1"
       scale_y_rel="false"
       spacing="0"
       normal_offset="0"
       tang_offset="0"
       prop_units="false"
       vertical_pattern="false"
       fuse_tolerance="0" />
    <inkscape:path-effect
       effect="skeletal"
       id="path-effect4412-9"
       is_visible="true"
       pattern="m 306.33882,16.635376 c 0,-2.76 2.24,-5 4.99999,-5 2.76,0 5,2.24 5,5 0,2.76 -2.24,5 -5,5 -2.75999,0 -4.99999,-2.24 -4.99999,-5 z"
       copytype="single_stretched"
       prop_scale="1"
       scale_y_rel="false"
       spacing="0"
       normal_offset="0"
       tang_offset="0"
       prop_units="false"
       vertical_pattern="false"
       fuse_tolerance="0" />
    <inkscape:path-effect
       effect="skeletal"
       id="path-effect4408-1"
       is_visible="true"
       pattern="m -17.232605,150.2068 c 0,-2.76 2.24,-5 5,-5 2.7600003,0 5.0000003,2.24 5.0000003,5 0,2.76 -2.24,5 -5.0000003,5 -2.76,0 -5,-2.24 -5,-5 z"
       copytype="single_stretched"
       prop_scale="1"
       scale_y_rel="false"
       spacing="0"
       normal_offset="0"
       tang_offset="0"
       prop_units="false"
       vertical_pattern="false"
       fuse_tolerance="0" />
    <inkscape:path-effect
       effect="skeletal"
       id="path-effect4404-9"
       is_visible="true"
       pattern="m -5.8040475,54.492516 c 0,-2.76 2.24,-5 4.99999998,-5 2.76000002,0 5.00000002,2.24 5.00000002,5 0,2.76 -2.24,5 -5.00000002,5 -2.75999998,0 -4.99999998,-2.24 -4.99999998,-5 z"
       copytype="single_stretched"
       prop_scale="1"
       scale_y_rel="false"
       spacing="0"
       normal_offset="0"
       tang_offset="0"
       prop_units="false"
       vertical_pattern="false"
       fuse_tolerance="0" />
    <inkscape:path-effect
       effect="skeletal"
       id="path-effect4400-4"
       is_visible="true"
       pattern="m 349.19596,14.492516 c 0,-2.76 2.24,-4.9999999 5,-4.9999999 2.76,0 5,2.2399999 5,4.9999999 0,2.76 -2.24,5 -5,5 -2.76,0 -5,-2.24 -5,-5 z"
       copytype="single_stretched"
       prop_scale="1"
       scale_y_rel="false"
       spacing="0"
       normal_offset="0"
       tang_offset="0"
       prop_units="false"
       vertical_pattern="false"
       fuse_tolerance="0" />
    <inkscape:path-effect
       effect="skeletal"
       id="path-effect4396-9"
       is_visible="true"
       pattern="m 373.48167,-68.364624 c 0,-2.76 2.24,-5 5,-5 2.76,0 5,2.24 5,5 0,2.76 -2.24,5 -5,5 -2.76,0 -5,-2.24 -5,-5 z"
       copytype="single_stretched"
       prop_scale="1"
       scale_y_rel="false"
       spacing="0"
       normal_offset="0"
       tang_offset="0"
       prop_units="false"
       vertical_pattern="false"
       fuse_tolerance="0" />
    <inkscape:path-effect
       effect="skeletal"
       id="path-effect4392-2"
       is_visible="true"
       pattern="m -44.37546,-6.2217697 c 0,-2.76 2.24,-5.0000003 5,-5.0000003 2.76,0 5,2.2400003 5,5.0000003 0,2.76 -2.24,5 -5,5 -2.76,0 -5,-2.24 -5,-5 z"
       copytype="single_stretched"
       prop_scale="1"
       scale_y_rel="false"
       spacing="0"
       normal_offset="0"
       tang_offset="0"
       prop_units="false"
       vertical_pattern="false"
       fuse_tolerance="0" />
    <inkscape:path-effect
       effect="skeletal"
       id="path-effect4388-5"
       is_visible="true"
       pattern="m 169.19597,-19.7932 c 0,-2.76 2.24,-5 5,-5 2.76,0 4.99999,2.24 4.99999,5 0,2.76 -2.23999,5 -4.99999,5 -2.76,0 -5,-2.24 -5,-5 z"
       copytype="single_stretched"
       prop_scale="1"
       scale_y_rel="false"
       spacing="0"
       normal_offset="0"
       tang_offset="0"
       prop_units="false"
       vertical_pattern="false"
       fuse_tolerance="0" />
    <clipPath
       clipPathUnits="userSpaceOnUse"
       id="clipPath4692">
      <rect
         y="316.95163"
         x="369.28571"
         height="200"
         width="200"
         id="rect4694"
         style="fill:#241f1c;fill-opacity:1;stroke:none" />
    </clipPath>
    <clipPath
       clipPathUnits="userSpaceOnUse"
       id="clipPath4696">
      <rect
         y="316.95163"
         x="369.28571"
         height="200"
         width="200"
         id="rect4698"
         style="fill:#241f1c;fill-opacity:1;stroke:none" />
    </clipPath>
    <clipPath
       clipPathUnits="userSpaceOnUse"
       id="clipPath4720">
      <rect
         clip-path="url(#clipPath4696)"
         y="316.95163"
         x="369.28571"
         height="200"
         width="200"
         id="rect4722"
         style="fill:#241f1c;fill-opacity:1;stroke:none" />
    </clipPath>
    <clipPath
       clipPathUnits="userSpaceOnUse"
       id="clipPath4724">
      <rect
         clip-path="url(#clipPath4696)"
         y="316.95163"
         x="369.28571"
         height="200"
         width="200"
         id="rect4726"
         style="fill:#241f1c;fill-opacity:1;stroke:none" />
    </clipPath>
    <clipPath
       clipPathUnits="userSpaceOnUse"
       id="clipPath4728">
      <rect
         clip-path="url(#clipPath4696)"
         y="316.95163"
         x="369.28571"
         height="200"
         width="200"
         id="rect4730"
         style="fill:#241f1c;fill-opacity:1;stroke:none" />
    </clipPath>
    <clipPath
       clipPathUnits="userSpaceOnUse"
       id="clipPath4732">
      <rect
         clip-path="url(#clipPath4696)"
         y="316.95163"
         x="369.28571"
         height="200"
         width="200"
         id="rect4734"
         style="fill:#241f1c;fill-opacity:1;stroke:none" />
    </clipPath>
    <clipPath
       clipPathUnits="userSpaceOnUse"
       id="clipPath4740">
      <rect
         clip-path="url(#clipPath4732)"
         y="316.95163"
         x="369.28571"
         height="200"
         width="200"
         id="rect4742"
         style="fill:#000000;fill-opacity:1;stroke:none" />
    </clipPath>
    <clipPath
       clipPathUnits="userSpaceOnUse"
       id="clipPath4744">
      <rect
         clip-path="url(#clipPath4732)"
         y="316.95163"
         x="369.28571"
         height="200"
         width="200"
         id="rect4746"
         style="fill:#000000;fill-opacity:1;stroke:none"
         transform="matrix(1,0,0,0.89211621,0,34.193952)" />
    </clipPath>
    <clipPath
       clipPathUnits="userSpaceOnUse"
       id="clipPath4748">
      <rect
         clip-path="url(#clipPath4732)"
         y="316.95163"
         x="369.28571"
         height="200"
         width="200"
         id="rect4750"
         style="fill:#000000;fill-opacity:1;stroke:none"
         transform="matrix(1,0,0,0.96197718,0,12.051393)" />
    </clipPath>
    <clipPath
       clipPathUnits="userSpaceOnUse"
       id="clipPath4752">
      <rect
         clip-path="url(#clipPath4732)"
         y="316.95163"
         x="369.28571"
         height="200"
         width="200"
         id="rect4754"
         style="fill:#000000;fill-opacity:1;stroke:none" />
    </clipPath>
    <clipPath
       clipPathUnits="userSpaceOnUse"
       id="clipPath4760">
      <rect
         clip-path="url(#clipPath4752)"
         y="316.95163"
         x="369.28571"
         height="200"
         width="200"
         id="rect4762"
         style="fill:#24221c;fill-opacity:1;stroke:none" />
    </clipPath>
    <clipPath
       clipPathUnits="userSpaceOnUse"
       id="clipPath4764">
      <rect
         clip-path="url(#clipPath4752)"
         y="316.95163"
         x="369.28571"
         height="200"
         width="200"
         id="rect4766"
         style="fill:#24221c;fill-opacity:1;stroke:none"
         transform="matrix(1,0,0,0.70168072,0,94.55281)" />
    </clipPath>
    <clipPath
       clipPathUnits="userSpaceOnUse"
       id="clipPath4768">
      <rect
         clip-path="url(#clipPath4752)"
         y="316.95163"
         x="369.28571"
         height="200"
         width="200"
         id="rect4770"
         style="fill:#24221c;fill-opacity:1;stroke:none"
         transform="matrix(1,0,0,0.8398438,0,50.761789)" />
    </clipPath>
    <clipPath
       clipPathUnits="userSpaceOnUse"
       id="clipPath4772">
      <rect
         clip-path="url(#clipPath4752)"
         y="316.95163"
         x="369.28571"
         height="200"
         width="200"
         id="rect4774"
         style="fill:#24221c;fill-opacity:1;stroke:none"
         transform="matrix(1,0,0,0.93703702,0,19.956213)" />
    </clipPath>
    <clipPath
       clipPathUnits="userSpaceOnUse"
       id="clipPath4776">
      <rect
         clip-path="url(#clipPath4752)"
         y="316.95163"
         x="369.28571"
         height="200"
         width="200"
         id="rect4778"
         style="fill:#24221c;fill-opacity:1;stroke:none" />
    </clipPath>
    <clipPath
       clipPathUnits="userSpaceOnUse"
       id="clipPath4260-9">
      <rect
         mask="none"
         clip-path="url(#clipPath4216)"
         y="489.42157"
         x="356.41052"
         height="200"
         width="200"
         id="rect4262-7"
         style="fill:#502d16;fill-opacity:1;stroke:none" />
    </clipPath>
    <clipPath
       clipPathUnits="userSpaceOnUse"
       id="clipPath4256-3">
      <rect
         mask="none"
         clip-path="url(#clipPath4216)"
         y="489.42157"
         x="356.41052"
         height="200"
         width="200"
         id="rect4258-1"
         style="fill:#502d16;fill-opacity:1;stroke:none" />
    </clipPath>
    <clipPath
       clipPathUnits="userSpaceOnUse"
       id="clipPath4252-6">
      <rect
         transform="translate(82.142857,-20)"
         mask="none"
         clip-path="url(#clipPath4216)"
         y="489.42157"
         x="356.41052"
         height="200"
         width="200"
         id="rect4254-6"
         style="fill:#502d16;fill-opacity:1;stroke:none" />
    </clipPath>
    <clipPath
       clipPathUnits="userSpaceOnUse"
       id="clipPath4248-2">
      <rect
         transform="translate(82.142857,-20)"
         mask="none"
         clip-path="url(#clipPath4216)"
         y="489.42157"
         x="356.41052"
         height="200"
         width="200"
         id="rect4250-7"
         style="fill:#502d16;fill-opacity:1;stroke:none" />
    </clipPath>
    <clipPath
       clipPathUnits="userSpaceOnUse"
       id="clipPath4244-1">
      <rect
         transform="translate(82.142857,-20)"
         mask="none"
         clip-path="url(#clipPath4216)"
         y="489.42157"
         x="356.41052"
         height="200"
         width="200"
         id="rect4246-3"
         style="fill:#502d16;fill-opacity:1;stroke:none" />
    </clipPath>
    <clipPath
       clipPathUnits="userSpaceOnUse"
       id="clipPath4240-4">
      <rect
         transform="translate(62.857143,43.571429)"
         mask="none"
         clip-path="url(#clipPath4216)"
         y="489.42157"
         x="356.41052"
         height="200"
         width="200"
         id="rect4242-6"
         style="fill:#502d16;fill-opacity:1;stroke:none" />
    </clipPath>
    <inkscape:path-effect
       effect="skeletal"
       id="path-effect4396-9-6"
       is_visible="true"
       pattern="m 253.60269,-29.130335 c 0,-2.76 2.24,-5 5,-5 2.76,0 5,2.24 5,5 0,2.76 -2.24,5 -5,5 -2.76,0 -5,-2.24 -5,-5 z"
       copytype="single_stretched"
       prop_scale="1"
       scale_y_rel="false"
       spacing="0"
       normal_offset="0"
       tang_offset="0"
       prop_units="false"
       vertical_pattern="false"
       fuse_tolerance="0" />
    <inkscape:path-effect
       fuse_tolerance="0"
       vertical_pattern="false"
       prop_units="false"
       tang_offset="0"
       normal_offset="0"
       spacing="0"
       scale_y_rel="false"
       prop_scale="1"
       copytype="single_stretched"
       pattern="m 262.8884,-31.273201 c 0,-2.75999 2.24,-4.99999 5,-4.99999 2.76,0 5,2.24 5,4.99999 0,2.76 -2.24,5 -5,5 -2.76,0 -5,-2.24 -5,-5 z"
       is_visible="true"
       id="path-effect4428-9-5"
       effect="skeletal" />
    <filter
       inkscape:collect="always"
       style="color-interpolation-filters:sRGB"
       id="filter4902">
      <feBlend
         inkscape:collect="always"
         mode="multiply"
         in2="BackgroundImage"
         id="feBlend4904" />
    </filter>
  </defs>
  <sodipodi:namedview
     id="base"
     pagecolor="#ffffff"
     bordercolor="#666666"
     borderopacity="1.0"
     inkscape:pageopacity="0.0"
     inkscape:pageshadow="2"
     inkscape:zoom="1.4"
     inkscape:cx="567.86277"
     inkscape:cy="363.69178"
     inkscape:document-units="px"
     inkscape:current-layer="layer6"
     showgrid="false"
     inkscape:window-width="1920"
     inkscape:window-height="1147"
     inkscape:window-x="1592"
     inkscape:window-y="-8"
     inkscape:window-maximized="1" />
  <metadata
     id="metadata7">
    <rdf:RDF>
      <cc:Work
         rdf:about="">
        <dc:format>image/svg+xml</dc:format>
        <dc:type
           rdf:resource="http://purl.org/dc/dcmitype/StillImage" />
        <dc:title></dc:title>
      </cc:Work>
    </rdf:RDF>
  </metadata>
  <g
     inkscape:groupmode="layer"
     id="layer5"
     inkscape:label="Ground (Stone)"
     sodipodi:insensitive="true">
    <rect
       style="fill:#24221c;fill-opacity:1;stroke:none"
       id="rect4686"
       width="200"
       height="200"
       x="369.28571"
       y="316.95163"
       clip-path="url(#clipPath4776)" />
    <rect
       style="fill:#484537;fill-opacity:1;stroke:none"
       id="rect4688"
       width="288.57144"
       height="198.57143"
       x="320"
       y="299.09448"
       clip-path="url(#clipPath4772)"
       transform="matrix(1,0,0,1.0671937,0,-21.297145)" />
    <rect
       style="fill:#6c6753;fill-opacity:1;stroke:none"
       id="rect4700"
       width="355.71429"
       height="189.28572"
       x="285.71429"
       y="281.23734"
       clip-path="url(#clipPath4768)"
       transform="matrix(1,0,0,1.1906976,0,-60.44194)" />
    <rect
       style="fill:#918a6f;fill-opacity:1;stroke:none"
       id="rect4736"
       width="265.71429"
       height="142.85715"
       x="337.14285"
       y="293.38019"
       clip-path="url(#clipPath4764)"
       transform="matrix(1,0,0,1.4251496,0,-134.7519)" />
    <rect
       style="fill:#483e37;fill-opacity:1;stroke:none"
       id="rect4756"
       width="270.71429"
       height="25"
       x="335"
       y="304.80878"
       clip-path="url(#clipPath4760)" />
    <g
       id="g4790"
       transform="translate(19.285714,10.714286)">
      <rect
         transform="translate(-262.85714,-0.71428572)"
         style="fill:#24221c;fill-opacity:1;stroke:none"
         id="rect4780"
         width="200"
         height="200"
         x="369.28571"
         y="316.95163"
         clip-path="url(#clipPath4776)" />
      <rect
         style="fill:#484537;fill-opacity:1;stroke:none"
         id="rect4782"
         width="288.57144"
         height="198.57143"
         x="320"
         y="299.09448"
         clip-path="url(#clipPath4772)"
         transform="matrix(1,0,0,1.0671937,-262.85714,-22.011431)" />
      <rect
         style="fill:#6c6753;fill-opacity:1;stroke:none"
         id="rect4784"
         width="355.71429"
         height="189.28572"
         x="285.71429"
         y="281.23734"
         clip-path="url(#clipPath4768)"
         transform="matrix(1,0,0,1.1906976,-262.85714,-61.156226)" />
      <rect
         style="fill:#918a6f;fill-opacity:1;stroke:none"
         id="rect4786"
         width="265.71429"
         height="142.85715"
         x="337.14285"
         y="293.38019"
         clip-path="url(#clipPath4764)"
         transform="matrix(1,0,0,1.4251496,-262.85714,-135.46619)" />
      <rect
         transform="translate(-262.85714,-0.71428572)"
         style="fill:#483e37;fill-opacity:1;stroke:none"
         id="rect4788"
         width="270.71429"
         height="25"
         x="335"
         y="304.80878"
         clip-path="url(#clipPath4760)" />
    </g>
  </g>
  <g
     inkscape:groupmode="layer"
     id="layer2"
     inkscape:label="Ground (Dirt)"
     style="display:inline"
     sodipodi:insensitive="true">
    <rect
       style="fill:#502d16;fill-opacity:1;stroke:none"
       id="rect4136"
       width="200"
       height="200"
       x="356.41052"
       y="489.42157"
       clip-path="url(#clipPath4260-0)"
       mask="none"
       transform="translate(5.0180498,-446.75565)" />
    <rect
       style="fill:#88aa00;fill-opacity:1;stroke:none"
       id="rect4138"
       width="324.28571"
       height="62.142857"
       x="295"
       y="471.64792"
       clip-path="url(#clipPath4256-4)"
       mask="none"
       transform="translate(5.0180498,-446.75565)" />
    <rect
       style="fill:#668000;fill-opacity:1;stroke:none"
       id="rect4192"
       width="265.71429"
       height="67.14286"
       x="404.28571"
       y="437.36221"
       clip-path="url(#clipPath4252-4)"
       transform="translate(-77.12481,-426.75565)" />
    <rect
       style="fill:#445500;fill-opacity:1;stroke:none"
       id="rect4194"
       width="323.57144"
       height="104.28571"
       x="371.42856"
       y="389.50507"
       clip-path="url(#clipPath4248-3)"
       transform="translate(-77.12481,-426.75565)" />
    <rect
       style="fill:#222b00;fill-opacity:1;stroke:none"
       id="rect4196"
       width="432.14285"
       height="130.71428"
       x="310"
       y="355.93362"
       clip-path="url(#clipPath4244-6)"
       transform="translate(-77.12481,-426.75565)" />
    <rect
       style="fill:#28170b;fill-opacity:1;stroke:none"
       id="rect4236"
       width="303.57144"
       height="72.14286"
       x="370.71429"
       y="712.36218"
       clip-path="url(#clipPath4240-9)"
       transform="translate(-57.83909,-490.32708)" />
    <g
       id="g4272"
       transform="translate(-82.839095,-395.32708)">
      <rect
         style="fill:#502d16;fill-opacity:1;stroke:none"
         id="rect4274"
         width="200"
         height="200"
         x="356.41052"
         y="489.42157"
         clip-path="url(#clipPath4260-9)"
         mask="none"
         transform="translate(-146.42857,-51.428571)" />
      <rect
         style="fill:#88aa00;fill-opacity:1;stroke:none"
         id="rect4276"
         width="324.28571"
         height="62.142857"
         x="295"
         y="471.64792"
         clip-path="url(#clipPath4256-3)"
         mask="none"
         transform="translate(-146.42857,-51.428571)" />
      <rect
         style="fill:#668000;fill-opacity:1;stroke:none"
         id="rect4278"
         width="265.71429"
         height="67.14286"
         x="404.28571"
         y="437.36221"
         clip-path="url(#clipPath4252-6)"
         transform="translate(-228.57143,-31.428571)" />
      <rect
         style="fill:#445500;fill-opacity:1;stroke:none"
         id="rect4280"
         width="323.57144"
         height="104.28571"
         x="371.42856"
         y="389.50507"
         clip-path="url(#clipPath4248-2)"
         transform="translate(-228.57143,-31.428571)" />
      <rect
         style="fill:#222b00;fill-opacity:1;stroke:none"
         id="rect4282"
         width="432.14285"
         height="130.71428"
         x="310"
         y="355.93362"
         clip-path="url(#clipPath4244-1)"
         transform="translate(-228.57143,-31.428571)" />
      <rect
         style="fill:#28170b;fill-opacity:1;stroke:none"
         id="rect4284"
         width="303.57144"
         height="72.14286"
         x="370.71429"
         y="712.36218"
         clip-path="url(#clipPath4240-4)"
         transform="translate(-209.28571,-95)" />
    </g>
  </g>
  <g
     inkscape:groupmode="layer"
     id="layer4"
     inkscape:label="Dirt">
    <g
       id="g4563"
       transform="matrix(0.91520487,0,0,0.90607761,-128.88971,-205.17057)">
      <path
         inkscape:connector-curvature="0"
         inkscape:original-d="m 643.48167,393.587 c -35.92534,-49.50001 -20.13888,-74.57867 34.28572,-58.57143 13.05512,3.83974 -3.57143,39.33965 -3.57143,45.71428"
         inkscape:path-effect="#path-effect4388-5"
         id="path4386"
         d="m 643.48167,393.587 c -0.66033,0.47924 -3.61173,-1.90259 -7.79785,-7.01127 -3.93652,-4.80409 -9.91587,-13.25611 -13.66463,-24.06995 -1.36746,-3.9229 -2.45064,-8.54018 -2.421,-13.58721 0.009,-3.74129 0.85834,-7.81983 3.01749,-11.65326 2.06388,-3.47598 5.06105,-6.28972 8.60862,-8.17004 4.04733,-2.12513 8.38815,-3.21756 12.66675,-3.6153 0.55032,-0.0526 1.10109,-0.0976 1.65231,-0.13507 12.36376,-0.84095 24.10374,2.16564 33.51851,5.26942 2.67398,0.86087 4.80179,2.63611 6.13685,4.94887 1.32077,2.53075 1.76536,4.97029 1.77695,7.02123 0.15486,5.87887 -1.31949,11.18688 -2.61277,15.20456 -1.75646,5.63733 -4.01299,10.98645 -5.52281,14.36019 -0.88638,1.98582 -1.9313,4.17032 -2.51017,5.3341 0,0 0,0 0,0 -0.97207,2.07361 -1.81224,3.24658 -2.13396,3.24658 -0.63005,0 -0.96449,-1.44459 -0.75611,-4.02744 0,0 0,0 0,0 0.12527,-1.67387 0.42562,-3.54088 0.8998,-5.97626 0.0792,-0.40737 2.65036,-12.48278 3.05214,-14.67088 0.70541,-4.01292 1.60188,-8.8144 1.06651,-12.87592 -0.2266,-1.36224 -0.43501,-2.53914 -0.93267,-3.10089 -0.21588,-0.32314 -0.6807,-0.62681 -1.05272,-0.66164 -9.20691,-2.37478 -20.04503,-4.92552 -30.20115,-4.11904 -0.45766,0.0363 -0.91333,0.0793 -1.36708,0.12897 -3.42324,0.38714 -6.53821,1.05323 -9.06976,2.40147 -2.10181,1.1023 -3.89002,2.6125 -4.96399,4.3786 -1.28189,1.91584 -1.87159,4.47705 -2.08483,7.0367 -0.27442,3.56948 0.39051,7.35175 1.25341,10.85346 2.37687,9.53674 7.10379,18.6487 9.70649,23.83087 2.88265,5.73956 4.48545,9.11499 3.73567,9.65915 z"
         style="fill:#803300;fill-rule:evenodd;stroke:none;stroke-width:1px;stroke-linecap:butt;stroke-linejoin:miter;stroke-opacity:1" />
      <path
         style="fill:#c87137;fill-rule:evenodd;stroke:none;stroke-width:1px;stroke-linecap:butt;stroke-linejoin:miter;stroke-opacity:1"
         d="m 645.11911,393.04869 c -0.66506,0.48267 -3.36622,-1.58204 -7.16315,-6.09388 -3.57657,-4.24999 -8.96691,-11.7445 -12.37848,-21.4339 -1.24479,-3.51435 -2.23163,-7.66931 -2.21879,-12.2422 -0.003,-3.39455 0.76694,-7.10768 2.7367,-10.62473 1.89119,-3.1875 4.62503,-5.76329 7.8617,-7.47947 3.68528,-1.93399 7.6158,-2.92964 11.47056,-3.28419 0.49503,-0.047 0.9904,-0.0871 1.48607,-0.12053 11.1242,-0.75022 21.62227,1.95037 30.01201,4.75276 2.50633,0.81155 4.4915,2.47242 5.7412,4.6401 1.22067,2.36072 1.62938,4.60095 1.62783,6.4642 0.11649,5.33248 -1.22662,10.08287 -2.41029,13.65926 -1.60989,5.04339 -3.65636,9.76019 -5.05092,12.76256 -0.83148,1.79545 -1.76243,3.65113 -2.32252,4.71168 0,0 0,0 0,0 -0.89778,1.81736 -1.72876,2.84628 -2.05813,2.84628 -0.62193,0 -0.96651,-1.30054 -0.83193,-3.62714 0,0 0,0 0,0 0.0787,-1.49788 0.32061,-3.18159 0.71215,-5.35383 -0.69656,3.86886 2.98557,-15.38397 2.58024,-13.07327 0.59583,-3.57235 1.36103,-7.81475 0.86403,-11.33061 -0.21357,-1.17504 -0.38588,-2.15165 -0.78355,-2.54386 -0.1303,-0.17795 -0.45289,-0.36747 -0.65707,-0.35289 -8.18186,-2.0734 -17.77809,-4.31809 -26.69464,-3.60237 -0.40211,0.0323 -0.80238,0.0704 -1.20085,0.11444 -2.9994,0.34395 -5.70406,0.91326 -7.87357,2.07036 -1.79091,0.93816 -3.31578,2.21041 -4.21707,3.68804 -1.09248,1.59949 -1.60309,3.7952 -1.80404,6.00816 -0.2576,3.09542 0.31095,6.41521 1.0512,9.50845 2.03986,8.41024 6.17742,16.56879 8.42035,21.19483 2.49344,5.14271 3.84602,8.20101 3.10096,8.74175 z"
         id="path4418"
         inkscape:path-effect="#path-effect4420-5"
         inkscape:original-d="m 645.11911,393.04869 c -31.9713,-44.0519 -17.92234,-66.37034 30.51214,-52.1249 11.61824,3.41713 -3.17835,35.00982 -3.17835,40.68284"
         inkscape:connector-curvature="0" />
    </g>
    <g
       id="g4559"
       transform="matrix(-0.998655,-0.05184773,0.05184773,-0.998655,1030.8432,582.45906)">
      <path
         inkscape:connector-curvature="0"
         inkscape:original-d="m 536.33882,403.58699 c -28.96873,11.02356 -37.17496,-54.98395 -32.85715,-57.14285 13.99879,-6.9994 66.17301,-12.62778 82.85715,-4.28571 5.71306,2.85653 9.82153,41.7855 6.42857,48.57141 -5.27429,10.54857 -28.16815,14.28572 -39.28572,14.28572"
         inkscape:path-effect="#path-effect4392-2"
         id="path4390"
         d="m 536.33882,403.58699 c -0.0649,-0.17047 -2.5285,3.9509 -10.38444,2.6936 0,0 0,0 0,0 -3.04533,-0.53498 -6.37807,-2.03992 -9.44164,-4.76281 -2.72836,-2.40217 -5.14019,-5.42522 -7.29015,-9.05704 -2.02606,-3.3967 -3.78112,-7.15403 -5.32525,-11.32455 -2.5013,-6.72654 -4.51322,-14.41608 -5.5172,-22.88029 -0.3235,-2.62374 -0.56631,-5.51645 -0.42541,-8.58423 0.0228,-0.90013 0.13993,-2.02956 0.47432,-3.35465 0.0911,-0.43117 0.32504,-1.03923 0.73537,-1.80474 0,0 10e-6,-3e-5 10e-6,-3e-5 0.18588,-0.57615 0.9318,-1.32059 2.26534,-2.1719 2.56584,-1.30984 5.14581,-2.21048 7.64337,-2.95103 3.28409,-0.99312 6.61136,-1.78761 9.99526,-2.47838 7.86064,-1.60821 16.00695,-2.69377 24.46967,-3.33632 3.09848,-0.2384 6.25007,-0.41886 9.43784,-0.51463 5.29412,-0.15905 10.52308,-0.0795 15.70245,0.31268 6.49091,0.39138 13.32369,1.28277 19.81693,4.47282 1.39002,0.8112 2.2721,1.62296 2.69666,2.31455 0.68701,0.9298 1.17272,1.79422 1.50996,2.54711 0.98135,2.12517 1.60636,4.18287 2.07373,6.04994 1.38763,5.39081 2.124,10.73683 2.61296,15.68117 0,0 0,10e-6 0,10e-6 0.57009,5.63692 0.82663,11.0106 0.6854,16.24355 -0.0556,2.18648 -0.1892,4.37067 -0.50759,6.58233 -0.13757,1.40058 -0.49367,3.187 -1.43657,5.14691 -2.20167,3.8921 -5.45019,6.36287 -8.42128,7.90837 -4.02432,2.18476 -8.13072,3.42451 -11.60826,4.21566 -14.31364,3.30932 -22.61863,1.18101 -22.61863,0.48047 0,-1.3067 8.19645,-1.33556 21.04955,-5.89382 3.10449,-1.11589 6.6437,-2.56509 9.69484,-4.61685 2.18677,-1.54294 4.38183,-3.35491 5.17888,-5.45628 0.25155,-0.42782 0.24395,-1.34218 0.42792,-2.68946 0.1491,-1.78414 0.14179,-3.65147 0.0886,-5.68206 -0.13559,-4.83552 -0.62102,-9.82253 -1.37434,-15.17411 0,0 0,0 0,0 -0.6733,-4.70825 -1.50658,-9.61246 -2.86152,-14.26299 -0.49153,-1.64354 -0.96483,-3.15319 -1.59854,-4.37256 -0.23074,-0.42326 -0.38213,-0.71679 -0.49946,-0.82727 -0.1546,-0.0569 0.0553,0.0454 0.59475,0.43121 -4.38603,-2.2498 -9.92557,-2.66751 -16.21602,-3.1951 -4.78715,-0.3244 -9.67212,-0.37148 -14.68737,-0.21804 -3.01867,0.0924 -6.02902,0.25562 -9.01056,0.46362 -8.1362,0.57614 -15.89449,1.49849 -23.36154,2.86426 -3.21316,0.58924 -6.27604,1.23562 -9.22638,2.04105 -2.30998,0.64637 -4.37186,1.26021 -6.14691,2.12078 1.01128,-0.69019 1.52565,-1.13542 1.52965,-1.40162 0,0 0,-10e-6 0,-10e-6 0.14269,-0.30929 0.20225,-0.41362 0.14945,-0.3378 -0.11098,0.24549 -0.15185,0.75251 -0.23611,1.46277 -0.21196,2.24357 -0.0874,4.6787 0.0839,7.14019 0.57701,7.78718 2.02316,14.97339 3.8978,21.37032 1.16193,3.94589 2.44416,7.42628 3.96661,10.5979 1.64511,3.39326 3.32138,6.1084 5.31543,8.32769 2.2135,2.44155 4.4425,3.9838 6.67073,4.78233 0,0 0,0 0,0 5.80239,2.22139 8.91271,-0.25632 9.4278,1.09728 z"
         style="fill:#803300;fill-rule:evenodd;stroke:none;stroke-width:1px;stroke-linecap:butt;stroke-linejoin:miter;stroke-opacity:1" />
      <path
         style="fill:#c87137;fill-rule:evenodd;stroke:none;stroke-width:1px;stroke-linecap:butt;stroke-linejoin:miter;stroke-opacity:1"
         d="m 535.20377,402.52055 c -0.0299,-0.0915 -2.36038,3.56702 -9.40725,2.1621 0,-1e-5 -10e-6,0 -10e-6,0 -2.73019,-0.59201 -5.68991,-2.07071 -8.34438,-4.63844 -2.36389,-2.26271 -4.41983,-5.07019 -6.20491,-8.40403 -1.68479,-3.11873 -3.11163,-6.54908 -4.3287,-10.33502 -1.97322,-6.10477 -3.46696,-13.05433 -4.02394,-20.65917 -0.18481,-2.35536 -0.28387,-4.9624 -0.0309,-7.72906 0.0554,-0.80983 0.21296,-1.84282 0.58123,-3.06542 0.10221,-0.3989 0.35382,-0.96791 0.7841,-1.68874 0,0 1e-5,-3e-5 1e-5,-3e-5 0.20219,-0.55012 0.96905,-1.24251 2.32333,-2.02161 2.3808,-1.07871 4.74143,-1.78485 7.00343,-2.34245 2.98011,-0.75367 5.98626,-1.32697 9.03314,-1.80335 7.07778,-1.11017 14.38684,-1.73933 21.95493,-1.95619 2.77091,-0.0825 5.58791,-0.11052 8.43497,-0.0609 4.7282,0.0824 9.39187,0.37654 14.00084,0.94846 5.76482,0.61487 11.87105,1.72501 17.62184,4.89196 1.30439,0.85063 2.1118,1.6625 2.47325,2.33081 0.60065,0.90207 1.01281,1.72322 1.28582,2.42513 0.79942,1.98127 1.27508,3.86729 1.60984,5.55897 1.00587,4.89145 1.42839,9.69878 1.64363,14.12714 0,0 0,10e-6 0,10e-6 0.25808,5.05019 0.24572,9.8584 -0.11689,14.52539 -0.14808,1.94963 -0.3676,3.90254 -0.75438,5.87824 -0.17897,1.24216 -0.59321,2.86234 -1.55609,4.64709 -2.20344,3.46171 -5.25468,5.55442 -8.00431,6.80099 -3.72352,1.77699 -7.45658,2.6929 -10.60105,3.23053 -12.94056,2.26452 -20.23377,-0.0953 -20.19893,-0.82908 0.0603,-1.27107 7.34743,-1.07137 18.88833,-4.65259 2.78733,-0.87974 5.96356,-2.03167 8.70878,-3.722 1.96632,-1.28137 3.93356,-2.76565 4.6493,-4.50539 0.19956,-0.28678 0.20932,-1.05393 0.43204,-2.24026 0.1974,-1.55672 0.26115,-3.19975 0.29316,-4.99886 0.0673,-4.28315 -0.16734,-8.71594 -0.62198,-13.48982 0,0 0,0 0,0 -0.41057,-4.2013 -0.95084,-8.57187 -1.95916,-12.72234 -0.3695,-1.46957 -0.71959,-2.80091 -1.21472,-3.86095 -0.1823,-0.36766 -0.28753,-0.60258 -0.35803,-0.65929 -0.12163,-0.0213 0.11787,0.13119 0.68427,0.56794 -3.69052,-2.12783 -8.52748,-2.70352 -14.08557,-3.44493 -4.22041,-0.48564 -8.54202,-0.73096 -12.99139,-0.80579 -2.678,-0.045 -5.3531,-0.0275 -8.00576,0.0302 -7.2388,0.166 -14.15252,0.65055 -20.82566,1.53721 -2.87153,0.38307 -5.60655,0.82095 -8.24439,1.40297 -2.07018,0.47242 -3.89966,0.91665 -5.46928,1.5841 1.06101,-0.64947 1.60941,-1.08565 1.63684,-1.36792 0,0 0,-1e-5 0,-1e-5 0.17314,-0.32664 0.2484,-0.4551 0.20134,-0.40945 -0.0939,0.15495 -0.1458,0.5696 -0.25359,1.18698 -0.28484,1.94004 -0.28216,4.08433 -0.24175,6.27043 0.1626,6.90834 1.11508,13.3283 2.47798,19.07412 0.84594,3.54347 1.81362,6.67469 3.00604,9.54476 1.29212,3.07171 2.6279,5.53654 4.26699,7.58185 1.81872,2.24655 3.67413,3.70988 5.57567,4.52654 0,0 0,0 0,0 4.95063,2.27274 7.84769,0.28239 8.27193,1.57916 z"
         id="path4422"
         inkscape:path-effect="#path-effect4424-9"
         inkscape:original-d="m 535.20377,402.52055 c -26.21655,8.57674 -30.72581,-50.44603 -26.79644,-52.18294 12.73941,-5.63126 59.35649,-8.43273 73.8356,-0.3131 4.958,2.78038 6.9673,37.55914 3.6648,43.44818 -5.1336,9.15443 -25.64254,11.51038 -35.52535,11.04121"
         inkscape:connector-curvature="0" />
    </g>
    <g
       id="g4583"
       transform="translate(-61.42857,-205.71429)">
      <path
         inkscape:connector-curvature="0"
         inkscape:original-d="m 867.76739,393.587 c -10.71767,-0.71504 -14.92012,3.17403 -22.14285,11.42858 -7.84078,8.96089 -17.54016,17.22317 -22.85715,27.85714 -2.45568,4.91138 4.48552,13.18557 7.85715,15.71429 7.11382,5.33536 15.41357,3.36842 23.57143,5 27.36528,5.47305 38.55862,0.7783 43.57142,-24.28572 0.57605,-2.88024 7.31308,-15.54406 4.28572,-18.57143 -5.81332,-5.81332 -20.10623,-10.7674 -25.71429,-13.57143"
         inkscape:path-effect="#path-effect4396-9"
         id="path4394"
         d="m 867.76739,393.587 c -0.13827,2.07245 -4.9312,-0.33258 -11.18692,4.40619 -3.06399,2.14637 -4.97203,4.81107 -8.48535,9.18415 -4.30571,5.46854 -6.74738,7.80665 -11.82974,13.85775 -3.43114,4.1182 -7.08567,8.80888 -9.42755,13.87285 -0.0937,-0.12438 0.0857,0.33957 0.15844,1.06376 0.21724,0.93232 0.80247,1.96929 1.53642,3.17054 0.75252,1.17262 1.65368,2.30423 2.66762,3.40139 0.83204,0.87473 1.59341,1.6408 2.33723,2.15936 0,0 10e-6,0 10e-6,0 2.15283,1.71239 5.36035,2.43027 8.95119,2.83418 3.52865,0.30345 7.99989,0.25891 12.68776,1.1472 0.35448,0.0693 0.70889,0.1381 1.06304,0.20603 5.47446,1.0501 10.58736,1.84166 15.54262,1.79702 3.96065,-0.0895 7.55354,-0.5344 10.33482,-2.03782 2.67482,-1.27453 4.90233,-3.74878 6.56429,-6.46644 2.45408,-4.03502 3.83904,-9.02694 4.96481,-13.70613 0.23207,-0.96873 0.49591,-1.66736 0.70121,-2.12424 0.32877,-0.81072 0.66551,-1.57132 0.97987,-2.27594 0.84575,-1.90378 1.60823,-3.58167 2.29024,-5.29209 0.69756,-1.80388 1.27887,-3.30839 1.52938,-4.74688 0.0836,-0.57706 0.16675,-0.96939 0.13828,-1.19335 0,0 10e-6,0 10e-6,0 -0.098,-0.14553 0.10692,-0.009 0.33656,0.3168 -2.92955,-3.42454 -8.23484,-6.18389 -11.5433,-8.09829 -3.01795,-1.71702 -4.63881,-2.58119 -6.83036,-3.88281 0,0 0,0 0,0 -3.44879,-2.04945 -5.19609,-3.44793 -4.90915,-4.0218 0.23468,-0.46935 2.42011,-0.11924 6.22336,0.95018 0,0 10e-6,0 10e-6,0 1.97284,0.55166 4.7042,1.39358 7.59746,2.45967 3.64796,1.3016 9.53084,3.44791 14.32494,7.73011 1.06327,1.17029 1.63825,2.36727 1.75388,3.41488 0,0 0,10e-6 0,10e-6 0.20792,1.22952 0.20925,2.33053 0.098,3.2564 -0.23429,2.29877 -0.79142,4.40257 -1.43086,6.38706 -0.62279,1.98567 -1.31065,3.85561 -2.02126,5.78666 -0.26748,0.72926 -0.52831,1.43656 -0.74948,2.10486 -0.15765,0.51955 -0.27125,0.81186 -0.24621,0.87729 -0.82963,5.09967 -2.21379,10.95881 -5.18432,16.57022 -2.14705,4.055 -5.49292,7.86989 -10.09364,10.44574 -4.70008,2.45562 -9.7982,3.40175 -14.70529,3.42294 -5.99714,0.0921 -11.8196,-0.71639 -17.57686,-1.85134 -0.37269,-0.0735 -0.74378,-0.14803 -1.11315,-0.22346 -3.24142,-0.69722 -7.39506,-0.63586 -11.6667,-1.07496 -4.71055,-0.38617 -9.58733,-1.85387 -13.83721,-4.94366 0,0 -1e-5,-10e-6 -1e-5,-10e-6 -1.47094,-1.14258 -2.66376,-2.35267 -3.65358,-3.50363 -1.32414,-1.50246 -2.52622,-3.12502 -3.56918,-4.8629 -1.05167,-1.6933 -1.96435,-3.68973 -2.51514,-5.98726 -0.59411,-2.07912 -0.44413,-4.63914 0.72333,-7.27973 3.26002,-6.13778 7.58614,-11.16847 11.53676,-15.2391 0.34244,-0.35554 13.70191,-13.54485 12.92025,-12.74458 3.77104,-3.95658 6.96005,-6.95038 11.0363,-8.97163 9.0498,-4.23646 13.55216,0.0791 13.57713,-0.29519 z"
         style="fill:#803300;fill-rule:evenodd;stroke:none;stroke-width:1px;stroke-linecap:butt;stroke-linejoin:miter;stroke-opacity:1" />
      <path
         style="fill:#c87137;fill-rule:evenodd;stroke:none;stroke-width:1px;stroke-linecap:butt;stroke-linejoin:miter;stroke-opacity:1"
         d="m 867.83478,395.1174 c -0.13011,1.95025 -4.40985,-0.10984 -9.82412,4.14747 -2.67428,1.92165 -4.29536,4.26569 -7.41104,8.18501 -3.77256,4.85305 -6.02312,7.05385 -10.46772,12.39379 -3.02511,3.6677 -6.24006,7.82312 -8.27386,12.27078 -0.0284,-0.32722 0.15749,0.0991 0.18953,0.6046 0.17497,0.75458 0.67777,1.62463 1.31345,2.66658 1.27852,1.90137 2.70061,3.65137 4.33196,4.79433 1.80045,1.44812 4.56315,2.04571 7.69712,2.40615 3.10002,0.26267 7.09536,0.22379 11.3475,1.0249 0.31468,0.0614 0.62921,0.12226 0.9434,0.18242 4.85633,0.92985 9.36738,1.63334 13.7199,1.59623 3.47264,-0.0834 6.58726,-0.45176 8.95683,-1.73732 2.27442,-1.06267 4.19525,-3.19074 5.64757,-5.53573 2.15559,-3.50443 3.38812,-7.89866 4.40629,-12.03998 0.22072,-0.91192 0.46371,-1.55581 0.64908,-1.95906 0.29854,-0.7294 0.60233,-1.40908 0.88471,-2.03487 0.76043,-1.69343 1.44242,-3.1747 2.05297,-4.68241 0.6241,-1.59567 1.14252,-2.90107 1.36647,-4.13416 -0.22453,-1.16683 0.35181,-1.16803 0.55063,-0.4612 0,0 0,0 0,0 -2.50784,-3.00177 -7.19078,-5.48849 -10.11972,-7.22724 -6.7876,-3.96571 -10.88933,-6.16911 -10.33292,-7.28193 0.24881,-0.49762 4.87045,0.081 12.41421,2.78722 3.26696,1.12466 8.53045,3.00089 12.90136,6.85903 0,0 10e-6,0 10e-6,0 1.86333,2.4771 2.287,4.85967 1.77614,6.25592 -0.20766,2.09323 -0.70203,3.99819 -1.26794,5.77434 -0.55117,1.78266 -1.15887,3.45657 -1.784,5.17698 -0.2355,0.65045 -0.46337,1.27677 -0.65432,1.86378 -0.13774,0.46608 -0.23043,0.70332 -0.19406,0.71212 -0.72201,4.56169 -1.95381,9.82335 -4.6258,14.90406 -1.93742,3.68231 -4.97661,7.15107 -9.17693,9.51504 -4.28837,2.23776 -8.90821,3.10732 -13.3273,3.12243 -5.39438,0.0845 -10.61498,-0.63585 -15.75413,-1.65054 -0.33273,-0.0657 -0.66393,-0.13238 -0.99351,-0.19985 -2.80574,-0.61007 -6.48338,-0.55434 -10.32644,-0.95268 -4.2537,-0.34269 -8.68561,-1.6901 -12.58312,-4.51563 -2.85987,-2.22565 -4.99323,-4.90534 -6.54989,-7.6001 -0.9534,-1.53401 -1.78365,-3.36351 -2.29217,-5.48329 -0.55736,-1.92461 -0.40586,-4.31871 0.69224,-6.82058 2.95188,-5.52139 6.83854,-10.01699 10.38307,-13.63704 1.51099,-1.55637 11.06674,-10.78438 11.55823,-11.28061 3.37212,-3.50072 6.27674,-6.17805 9.96199,-7.97249 8.20801,-3.74994 12.19785,0.21056 12.21433,-0.0365 z"
         id="path4426"
         inkscape:path-effect="#path-effect4428-9"
         inkscape:original-d="m 867.83478,395.1174 c -9.53806,-0.63634 -13.27797,2.82469 -19.70574,10.17072 -6.97781,7.97463 -15.60965,15.32754 -20.34144,24.79111 -2.1854,4.37082 3.99183,11.73433 6.99238,13.98474 6.33085,4.74813 13.71711,2.99768 20.97709,4.44968 24.35339,4.87067 34.31476,0.69264 38.77583,-21.61276 0.51265,-2.56325 6.50819,-13.83324 3.81402,-16.52742 -5.17348,-5.17348 -17.89327,-9.5823 -22.88411,-12.07771"
         inkscape:connector-curvature="0" />
    </g>
    <g
       id="g4591"
       transform="translate(-83.571431,-184.28571)">
      <path
         inkscape:connector-curvature="0"
         inkscape:original-d="m 900.75588,481.65469 c 1.27216,6.95798 0.0553,28.88692 7.61928,31.76725 0.99131,0.37747 3.41459,-2.66366 4.10463,-3.33389 6.4382,-6.25316 37.56534,-34.6393 25.83834,-44.02678 -8.63575,-6.91294 -25.78762,-8.08079 -36.05951,-8.06109 -7.75971,0.0149 -5.89245,23.8949 -3.11675,25.87494"
         inkscape:path-effect="#path-effect4400-4"
         id="path4398"
         d="m 900.75588,481.65469 c 0.90189,-0.1649 1.83644,2.52673 2.77591,7.36844 0.0833,0.42841 1.46755,8.20069 1.76699,9.67555 0.54535,2.62332 1.19896,5.71038 2.36591,8.20539 0.43564,0.90199 0.86347,1.70362 1.36142,2.19569 0.38148,0.33475 0.67359,0.5852 0.79922,0.51383 -2.23697,-0.12363 -3.13885,-0.21856 -2.71506,0.0747 2e-5,0 10e-6,10e-6 10e-6,10e-6 0.038,-0.0252 0.18547,-0.2195 0.50552,-0.5352 0.34385,-0.37464 0.98895,-1.23311 1.87066,-2.14689 2.29192,-2.3965 5.67503,-5.8193 8.08287,-8.38604 3.59524,-3.83339 7.36099,-8.00851 10.75798,-12.42526 2.32538,-3.10294 4.64678,-6.21968 6.11863,-9.35738 0.37574,-0.801 0.69589,-1.60154 0.95135,-2.40643 0.40156,-1.44117 0.72432,-2.57487 0.52938,-3.2862 -0.01,-0.40953 -0.32397,-0.94812 -0.68556,-1.23975 -3.76141,-3.31106 -9.67749,-4.75605 -15.11888,-5.97862 -6.21517,-1.27584 -12.44993,-1.81169 -17.85626,-2.0967 0.1851,-0.10854 0.1265,-0.11427 0.0637,-0.14013 -0.28342,0.0956 -0.58204,0.64109 -0.9712,1.33021 -1.06489,2.09772 -1.46889,4.90305 -1.77915,7.25189 -0.41041,3.41813 -0.46872,6.15848 -0.45531,8.41709 0.0167,1.57816 0.0206,2.06133 0.0772,3.13407 0.15909,0.89208 -0.0758,2.07515 -0.0594,2.05217 -0.22358,0.31342 -1.2079,0.11226 -2.02196,-1.30721 -0.54736,-0.8183 -1.04289,-1.87527 -1.51064,-3.25893 -0.78506,-2.30193 -1.46355,-5.38021 -1.68968,-9.17932 -0.18782,-2.59225 -0.18582,-5.99923 0.93724,-9.6076 0.35803,-1.2559 1.07371,-2.71062 2.3794,-4.14163 1.23342,-1.26894 2.9546,-2.09631 5.01504,-2.20989 5.71362,-0.30769 12.39356,-0.25669 19.43036,0.76492 6.01956,0.7645 13.33469,2.47919 19.71352,7.28194 2.28139,1.82407 3.8416,4.41081 4.35595,7.42131 0.37938,3.03325 -0.0527,5.75072 -0.88121,7.9731 -0.41276,1.18516 -0.88286,2.33164 -1.40075,3.44274 -2.03974,4.37612 -4.76716,8.08343 -7.37463,11.25061 -3.84181,4.78468 -7.9678,9.06665 -11.89933,12.85653 -2.933,2.83079 -6.07327,5.62267 -8.72206,8.00821 -0.41804,0.34891 -1.09086,1.12007 -2.00802,1.97277 -0.43781,0.42442 -1.06165,0.94005 -1.90002,1.47808 0,0 -2e-5,0 -2e-5,0 -0.1574,0.66969 -1.76522,0.97667 -4.64007,0.60954 -1.8654,-0.83063 -3.21621,-2.01813 -4.09458,-3.29933 -1.06947,-1.51882 -1.73203,-3.03056 -2.15012,-4.39176 -1.16585,-3.69632 -1.46312,-7.26942 -1.5669,-10.10301 -0.1673,-3.90179 0.007,-7.61926 0.19362,-10.16198 0.32568,-4.78394 0.8909,-7.5175 1.44887,-7.61952 z"
         style="fill:#803300;fill-rule:evenodd;stroke:none;stroke-width:1px;stroke-linecap:butt;stroke-linejoin:miter;stroke-opacity:1" />
      <path
         style="fill:#c87137;fill-rule:evenodd;stroke:none;stroke-width:1px;stroke-linecap:butt;stroke-linejoin:miter;stroke-opacity:1"
         d="m 903.38139,480.02631 c 0.87423,-0.1856 1.82612,1.95697 2.84165,5.83698 1.36845,5.23778 0.31,1.66156 1.86062,7.71135 0.54682,2.08925 1.18399,4.52118 2.17578,6.41858 0.37192,0.68539 0.71232,1.26705 1.0734,1.57572 0.27771,0.18953 0.40961,0.30294 0.33922,0.15594 -2.35155,-0.13282 -3.3604,-0.16673 -3.01378,0.1881 2e-5,0 0,0 0,0 -0.0678,0.048 -0.0137,-0.0666 0.21803,-0.30816 0,0 0,0 0,0 0.21581,-0.2648 0.65921,-0.9232 1.40502,-1.75478 1.68781,-1.91281 4.33656,-4.81321 6.0854,-6.82747 2.70278,-3.11337 5.52112,-6.48197 8.02847,-10.00732 1.73482,-2.52244 3.44966,-5.00474 4.46672,-7.41583 0.25236,-0.59825 0.46195,-1.19132 0.62201,-1.78256 0.24349,-1.08166 0.45768,-1.85678 0.31029,-2.22848 0.0227,-0.12931 -0.12777,-0.39228 -0.26123,-0.49958 -2.77919,-2.47946 -7.33946,-3.60032 -11.61425,-4.59191 0,0 0,0 0,0 -4.82369,-1.00523 -9.69568,-1.44282 -13.94125,-1.69053 0.42151,-0.11676 0.57513,-0.22161 0.67316,-0.4064 -0.10737,-0.0766 -0.27771,0.25956 -0.57618,0.764 -0.78906,1.56284 -1.07363,3.76438 -1.30888,5.64138 -0.30359,2.73824 -0.35253,4.91454 -0.36666,6.74215 -0.006,2.7428 -0.0184,0.1917 -0.0102,2.53185 0.10356,0.65383 -0.22865,1.75677 -0.22084,1.74567 -0.22394,0.31839 -1.08792,0.19217 -1.85729,-0.94658 -0.50569,-0.64454 -0.9773,-1.49826 -1.43181,-2.60577 -0.76156,-1.84069 -1.45881,-4.33008 -1.80719,-7.41952 -0.27037,-2.0925 -0.4073,-4.87804 0.38488,-7.95295 0.23757,-1.06124 0.80575,-2.33709 1.92001,-3.66441 1.0847,-1.19197 2.62883,-1.97344 4.52168,-2.10578 4.55544,-0.34018 9.88137,-0.38317 15.53065,0.36788 0,0 0,0 0,0 4.87741,0.54337 10.83961,1.92673 16.199,5.85666 2.0165,1.58691 3.4162,3.81873 3.94342,6.44165 0.40116,2.61917 0.13128,4.95383 -0.50274,6.84757 -0.29986,0.96813 -0.64367,1.90537 -1.02429,2.81366 -1.54454,3.68575 -3.65198,6.78827 -5.67637,9.39758 -2.9438,3.91638 -6.12206,7.41315 -9.16252,10.50076 -2.27369,2.3129 -4.68171,4.55819 -6.72778,6.48514 -0.27079,0.22078 -0.77165,0.82864 -1.54343,1.58824 0,0 0,0 0,0 -0.34512,0.35847 -0.87978,0.82073 -1.62496,1.32893 0,0 -3e-5,0 -3e-5,0 -0.10281,0.66226 -1.66295,0.95355 -4.51719,0.63149 -1.67582,-0.75205 -2.86528,-1.78441 -3.62023,-2.8824 -0.93001,-1.30303 -1.50872,-2.5742 -1.86999,-3.70577 -1.00896,-3.06904 -1.30035,-5.98828 -1.41103,-8.29866 -0.17684,-3.19223 -0.06,-6.17369 0.0933,-8.2528 0.25811,-3.86564 0.8091,-6.09873 1.39735,-6.22362 z"
         id="path4430"
         inkscape:path-effect="#path-effect4432-8"
         inkscape:original-d="m 903.38139,480.02631 c 1.18776,5.59467 0.81082,23.26137 6.85062,25.53091 0.79154,0.29743 2.62122,-2.16749 3.14744,-2.71175 4.90964,-5.07794 28.69559,-28.14171 19.20097,-35.6238 -6.99183,-5.50981 -20.54497,-6.33711 -28.64257,-6.25349 -6.11718,0.0632 -4.01081,19.28068 -1.76993,20.85683"
         inkscape:connector-curvature="0" />
    </g>
    <g
       id="g4567"
       transform="matrix(0.00730907,0.99997329,-0.99997329,0.00730907,793.27208,-471.45671)">
      <path
         inkscape:connector-curvature="0"
         inkscape:original-d="m 628.48167,363.587 c 5.26305,9.47661 2.59653,20.57913 4.28572,30.71429 4.37557,26.25339 -4.30302,32.34446 -30.71429,28.57143 -9.54551,-1.36365 -20.10546,1.73298 -27.85714,-2.14286 -11.92675,-5.96338 -15.73352,-49.27129 -4.28571,-57.85714 8.00007,-6.00006 31.43974,-2.85715 39.28571,-2.85715"
         inkscape:path-effect="#path-effect4404-9"
         id="path4402"
         d="m 628.48167,363.587 c 0.37886,-0.21041 1.60239,0.76682 2.93078,3.28875 1.38449,2.62843 2.58668,6.4057 3.13959,11.72125 0.39767,3.47144 0.72168,10.9084 1.68157,15.12658 0,0 0,10e-6 0,10e-6 1.05363,4.76838 2.08565,10.81568 1.38676,17.24293 -0.37412,4.02379 -1.99613,8.56525 -5.73693,12.20813 -3.81024,3.25154 -8.40954,4.78601 -12.8044,5.16077 -6.00366,0.66881 -11.86518,0.19416 -17.718,-0.61827 -4.07999,-0.59038 -8.49505,-0.10779 -13.78541,0.0122 -2.62825,0.14999 -5.55886,0.13042 -8.60878,-0.38673 -2.31422,-0.39241 -4.66933,-1.06651 -7.00376,-2.14705 -2.76861,-1.51402 -4.69711,-3.5169 -5.93678,-5.4869 -1.70007,-2.52334 -2.88679,-5.13442 -3.76248,-7.62402 -2.28448,-6.4001 -3.29711,-12.88744 -3.66508,-18.92488 -0.44986,-6.70582 -0.1172,-13.16482 1.24798,-19.30426 0,0 0,-10e-6 0,-10e-6 0.5997,-2.74332 1.47777,-5.45799 2.78803,-8.04404 1.06526,-2.21245 2.69173,-4.35147 4.94968,-6.03983 3.54452,-2.35196 7.24462,-3.07916 10.18548,-3.32988 4.34074,-0.4889 8.47858,-0.35458 11.85404,-0.11568 4.41374,0.30507 8.4894,0.88207 11.36131,1.37018 5.30323,0.89235 8.21069,1.7539 8.21069,2.3193 0,0.79247 -3.02516,1.24219 -8.43611,1.52465 -1.77218,0.092 -8.06772,0.32696 -11.16202,0.52194 -3.22775,0.20715 -7.10236,0.50721 -10.72708,1.2861 -2.56138,0.62598 -5.21146,1.25584 -6.63469,2.62554 -0.85956,0.64979 -1.51715,1.87226 -2.23393,3.37324 -0.79788,1.80721 -1.29599,3.8759 -1.70256,6.19033 0,0 0,10e-6 0,10e-6 -0.89415,5.21699 -0.89538,10.80065 -0.32303,16.87226 0.55088,5.45097 1.54169,11.07827 3.52938,16.26822 0.78141,2.00593 1.62288,3.87631 2.70375,5.38109 0.88626,1.10945 1.59101,2.02034 2.21916,2.20518 1.12937,0.65137 2.49761,1.01311 4.05354,1.21537 2.04157,0.26539 4.40506,0.25396 6.84569,0.27786 4.84557,-0.13165 9.87065,-0.51394 15.4171,0.27093 5.60929,0.82504 10.61958,1.4408 15.39536,1.02042 3.33952,-0.40704 6.21684,-0.95852 7.88665,-2.52953 1.81142,-1.24475 2.80217,-4.0101 3.40909,-6.74209 0.92843,-4.78593 0.38083,-10.2549 -0.13509,-14.8981 0,0 0,0 0,0 -0.67553,-5.75645 -0.0705,-12.51913 0.0762,-16.08162 0.29144,-9.44966 -1.41681,-14.92098 -0.89574,-15.21037 z"
         style="fill:#803300;fill-rule:evenodd;stroke:none;stroke-width:1px;stroke-linecap:butt;stroke-linejoin:miter;stroke-opacity:1" />
      <path
         style="fill:#c87137;fill-rule:evenodd;stroke:none;stroke-width:1px;stroke-linecap:butt;stroke-linejoin:miter;stroke-opacity:1"
         d="m 625.94891,364.70364 c 0.81915,-0.47919 4.68815,3.58334 5.98384,13.21654 0.45174,3.08525 0.94174,9.71105 1.89247,13.3702 0,0 0,10e-6 0,10e-6 1.06219,4.22815 2.1276,9.61848 1.64845,15.44119 -0.23838,3.65836 -1.62388,7.82949 -4.98282,11.27943 -3.44103,3.06381 -7.59619,4.57669 -11.55697,4.99705 -5.39556,0.7296 -10.66661,0.43269 -15.90356,-0.17277 -3.5608,-0.43524 -7.44576,0.0867 -12.17473,0.29858 -2.3453,0.19552 -4.98475,0.23536 -7.76416,-0.1767 -2.10876,-0.31264 -4.27224,-0.88154 -6.43753,-1.81862 -2.6128,-1.36253 -4.43708,-3.16467 -5.59973,-4.9397 -1.59808,-2.26654 -2.72575,-4.60637 -3.56016,-6.83049 -2.1776,-5.71506 -3.20985,-11.51409 -3.64794,-16.91087 -0.52765,-5.99242 -0.34293,-11.79417 0.77437,-17.33505 0,0 10e-6,-10e-6 10e-6,-10e-6 0.4891,-2.47657 1.23646,-4.94526 2.37803,-7.31567 0.92208,-2.02921 2.37882,-4.01628 4.42984,-5.6222 3.22285,-2.21973 6.55704,-2.94691 9.19044,-3.20831 3.89207,-0.50604 7.59121,-0.44562 10.60786,-0.27565 3.95139,0.2152 7.57761,0.68362 10.14887,1.09699 4.73158,0.75111 7.33075,1.5364 7.34362,2.11201 0.0175,0.78194 -2.67007,1.31018 -7.48309,1.73602 -0.64051,0.0564 -8.10458,0.62058 -9.90735,0.7902 -2.85923,0.27268 -6.28504,0.64062 -9.45503,1.4206 -2.24627,0.62834 -4.53158,1.23422 -5.65628,2.4248 -0.67618,0.53638 -1.18476,1.58547 -1.77435,2.8956 -0.64672,1.58034 -1.02865,3.39468 -1.33426,5.43817 0,0 0,0 0,0 -0.667,4.60816 -0.53994,9.52734 0.096,14.88299 0.60785,4.80638 1.59906,9.74605 3.45291,14.2579 0.72935,1.7427 1.4953,3.3497 2.45157,4.61178 0.79026,0.92278 1.36638,1.66019 1.8097,1.74187 0.95094,0.53495 2.12082,0.81361 3.46722,0.95309 1.76535,0.18289 3.83781,0.12476 5.99909,0.10726 4.28405,-0.21358 8.78109,-0.64887 13.81235,-0.0519 4.99378,0.62351 9.41691,1.0805 13.59048,0.62671 2.90491,-0.42904 5.36064,-0.92071 6.69925,-2.25659 1.48366,-1.00957 2.27768,-3.39037 2.77769,-5.76273 0.74532,-4.18725 0.17712,-9.00958 -0.3447,-13.12491 0,0 0,0 0,0 -0.69912,-5.19472 -0.24858,-11.18452 -0.15643,-14.36428 0.14506,-8.3388 -1.34126,-13.22463 -0.81498,-13.53249 z"
         id="path4434"
         inkscape:path-effect="#path-effect4436-2"
         inkscape:original-d="m 625.94891,364.70364 c 4.87107,8.32684 2.71941,18.25794 4.42386,27.24176 4.41508,23.27102 -3.18528,28.86292 -26.75881,26.03121 -8.51991,-1.02345 -17.85368,1.94167 -24.82754,-1.35257 -10.73,-5.06855 -14.97815,-43.52455 -4.96358,-51.39115 6.99846,-5.49744 27.91559,-3.16727 34.89627,-3.32329"
         inkscape:connector-curvature="0" />
    </g>
    <g
       id="g4587"
       transform="translate(-567.75052,-290.42862)">
      <path
         inkscape:connector-curvature="0"
         inkscape:original-d="m 980.75924,469.46362 c 3.24921,4.62284 28.61326,25.16287 20.67466,29.54773 -3.87976,2.14299 -10.02817,0.28496 -14.20533,1.51319 -47.31697,13.91288 -40.81587,-25.54751 -12.16507,-41.37276"
         inkscape:path-effect="#path-effect4412-9"
         id="path4410"
         d="m 980.75924,469.46362 c 0.35147,-0.24703 1.52409,0.21718 3.24309,1.34637 10e-6,0 10e-6,0 10e-6,0 1.05553,0.67317 2.56398,1.71157 4.14785,2.88859 2.5411,1.88543 6.21137,4.78962 9.79798,8.1867 2.42033,2.23894 5.52623,5.29025 7.85923,9.4032 0,0 0,0 0,0 0.7927,1.18777 1.4924,3.06063 1.5483,5.64971 -0.024,1.10477 -0.3596,2.28126 -1.046,3.46269 0,0 0,1e-5 0,1e-5 -0.791,1.18585 -1.7156,2.04718 -2.6925,2.56315 -3.4484,1.73172 -6.72796,2.03833 -9.2546,1.87806 -2.57143,0.0937 -4.67762,-0.1402 -5.75671,0.36663 -4.66279,1.46781 -9.83457,2.69752 -15.33563,3.10597 -0.35531,0.0264 -0.71099,0.0493 -1.06706,0.0686 -4.06349,0.2597 -8.33719,-0.11576 -12.51635,-1.58797 -3.27835,-1.14514 -6.26942,-3.25721 -8.4924,-6.21167 -2.05731,-2.94048 -3.00889,-6.2 -3.11649,-9.27273 -0.12747,-3.66057 0.61886,-6.9846 1.71282,-9.79926 1.40496,-3.6829 3.34041,-6.81113 5.33966,-9.37552 0,0 10e-6,-10e-6 10e-6,-10e-6 9.73364,-12.5106 19.63062,-13.53186 19.93305,-12.98432 1.02039,1.84736 -7.07787,5.7235 -13.74737,17.21021 0,0 0,0 0,0 -1.36713,2.36227 -2.64889,5.03663 -3.41537,7.85692 -0.56866,2.16464 -0.93289,4.42449 -0.66248,6.45011 0.21906,1.59432 0.72987,3.16471 1.6302,4.18871 0.83062,1.13808 2.35577,2.00946 4.1185,2.65692 2.4493,0.88484 5.40818,1.00274 8.70097,0.8829 0.2872,-0.0139 0.57523,-0.0309 0.86412,-0.0509 4.45764,-0.30911 8.97776,-1.3322 13.29918,-2.50626 3.59937,-0.86557 6.58853,-0.63198 8.67167,-0.4605 2.44502,-0.0758 4.06979,0.21918 4.72772,-0.32119 -0.0865,0.0243 -0.21598,0.21598 -0.46899,0.55585 0,0 0,0 0,0 -0.17768,0.38123 -0.25364,0.62038 -0.22125,0.79209 0.19987,0.11973 -0.0772,-0.3694 -0.34877,-1.3056 0,0 0,0 0,0 -1.15644,-2.82805 -3.58541,-5.77524 -5.57581,-8.33282 -5.31767,-6.71847 -3.45564,-4.03701 -7.83244,-9.63858 -1.28318,-1.64228 -2.25349,-2.97468 -2.99354,-4.17827 0,0 0,0 0,0 -1.17135,-1.9098 -1.54576,-3.13968 -1.0506,-3.48771 z"
         style="fill:#803300;fill-rule:evenodd;stroke:none;stroke-width:1px;stroke-linecap:butt;stroke-linejoin:miter;stroke-opacity:1" />
      <path
         style="fill:#c87137;fill-rule:evenodd;stroke:none;stroke-width:1px;stroke-linecap:butt;stroke-linejoin:miter;stroke-opacity:1"
         d="m 979.83656,469.1822 c 0.38326,-0.21359 1.38274,0.1674 2.69765,1.13284 0,0 0,0 0,0 0.82998,0.58617 1.9528,1.46446 3.15215,2.49707 1.92483,1.65374 4.61051,4.16023 7.23529,7.12998 1.77493,1.95047 4.02826,4.63347 5.64445,8.19944 0,0 0,0 0,0 0.57615,1.04086 1.01574,2.70032 0.89215,4.9913 -0.0923,0.97518 -0.47171,2.01482 -1.17255,3.06632 0,0 -10e-6,1e-5 -10e-6,1e-5 -0.79391,1.03761 -1.68916,1.77437 -2.62447,2.19012 -3.1349,1.26472 -5.91201,1.34083 -7.85689,0.99891 -2.05744,-0.0786 -3.52881,-0.40666 -4.05207,-0.0998 -3.76557,0.89032 -7.96051,1.53869 -12.40863,1.47158 -0.23702,-0.004 -0.47419,-0.009 -0.71152,-0.0168 -3.25485,-0.0646 -6.68962,-0.71315 -10.00366,-2.26881 -2.65403,-1.2497 -4.95203,-3.30779 -6.55459,-5.99017 -1.47601,-2.69823 -2.00206,-5.51138 -1.85168,-8.07733 0.49532,-6.82911 3.90533,-11.97524 7.04105,-15.2611 0,0 0,-10e-6 0,-10e-6 8.58861,-9.36855 16.54327,-9.34966 16.8827,-8.61757 0.80243,1.7307 -5.52106,4.6971 -10.99567,13.23563 0,0 0,0 0,0 -1.92071,3.153 -4.05812,7.23818 -3.73276,10.78663 0.0914,1.18032 0.35259,2.3253 0.90073,3.03375 0.44507,0.76281 1.40777,1.43394 2.54408,1.98669 1.59735,0.77987 3.70176,1.03843 6.1313,1.17951 0.17716,0.007 0.35502,0.013 0.53359,0.0171 3.33627,0.0758 6.82465,-0.41798 10.20756,-1.03681 3.16482,-0.46724 5.56216,-0.0697 7.08667,0.23675 1.85773,0.0695 2.88789,0.46797 3.03031,0.20555 -0.21248,0.0807 -0.45352,0.33214 -0.78308,0.73626 0,0 0,1e-5 0,1e-5 -0.25301,0.44056 -0.37402,0.74845 -0.36158,0.98432 0.14983,0.3174 1.5e-4,0.0365 -0.10329,-0.71117 0,0 0,-1e-5 0,-1e-5 -0.59508,-2.20769 -2.18779,-4.71976 -3.49842,-6.93715 -2.39078,-3.96202 -3.37487,-5.32026 -5.12457,-8.3686 -0.82094,-1.4307 -1.43498,-2.61029 -1.86452,-3.65789 0,0 0,0 0,0 -0.68353,-1.68493 -0.80479,-2.74386 -0.27972,-3.03649 z"
         id="path4442"
         inkscape:path-effect="#path-effect4444-1"
         inkscape:original-d="m 979.83656,469.1822 c 2.18902,3.9278 20.30954,22.13639 13.91992,25.0989 -3.12274,1.44785 -7.72253,-0.46616 -11.01297,0.22841 -37.27264,7.86756 -29.65795,-23.28946 -6.59758,-33.98135"
         inkscape:connector-curvature="0" />
    </g>
    <g
       id="g4595"
       transform="translate(84.285714,-282.14286)">
      <path
         inkscape:connector-curvature="0"
         inkscape:original-d="m 851.33883,487.15843 c -9.659,3.30082 -26.80697,-3.76737 -35.71429,1.42857 -29.81997,17.39498 3.2766,50.94559 27.85715,43.57143 13.19037,-3.95711 43.34598,-41.42857 18.57142,-41.42857"
         inkscape:path-effect="#path-effect4416-2"
         id="path4414"
         d="m 851.33883,487.15843 c 0.26283,0.7691 -2.54632,2.64709 -8.48467,3.05642 -3.0855,0.23756 -5.95563,0.14532 -9.9818,0.0164 -2.77184,-0.0808 -6.15244,-0.21623 -9.12146,0.0933 -2.28951,0.29288 -4.62506,0.69458 -6.06947,1.7885 -2.60703,1.72444 -5.17732,3.79715 -6.83579,6.30334 -1.20294,1.78824 -2.07501,3.87579 -2.25045,5.95468 -0.21163,1.89424 0.12119,3.97644 0.84341,6.02799 0.75238,2.12935 2.01335,4.20476 3.59621,6.19397 2.15466,2.68942 4.87189,5.05505 7.9855,6.97546 1.71751,1.05932 3.5188,1.96022 5.35869,2.69664 5.41105,2.0704 11.01272,2.71899 15.73462,1.33303 1.29041,-0.29112 2.74497,-1.17579 4.34648,-2.16606 2.09039,-1.34978 4.07448,-2.95588 5.94788,-4.60798 0,0 0,-10e-6 0,-10e-6 4.76315,-4.23099 8.53643,-8.51634 11.51604,-12.76621 1.56639,-2.25058 2.78727,-4.24957 3.68217,-6.286 0.79165,-1.93745 1.32527,-3.40262 1.28906,-4.80221 0.0362,-1.18707 -0.43039,-2.30818 -1.11044,-2.96587 -2.9042,-3.15301 -5.7317,-1.51055 -5.7317,-3.274 0,0.17451 2.53585,-2.76546 7.98035,-0.0383 1.78951,1.01892 3.46512,2.94028 3.98727,5.63196 0.44796,2.4656 0.20171,5.0256 -0.54255,7.49406 -0.75456,2.69476 -1.90482,5.34958 -3.3937,8.04498 -2.7993,5.10618 -6.62576,10.32342 -11.62829,15.34494 0,0 0,0 0,0 -1.97431,1.99375 -4.20927,4.00601 -6.75048,5.84475 -1.79491,1.3479 -4.04619,2.72703 -6.85595,3.66645 -7.13445,2.17097 -14.95578,1.66402 -22.09745,-1.16876 -2.40403,-0.92128 -4.75196,-2.07708 -6.99451,-3.4647 -4.06588,-2.51585 -7.61805,-5.68953 -10.48677,-9.35599 -2.15505,-2.7402 -3.88295,-5.83817 -5.00355,-9.20449 -1.10847,-3.31996 -1.46496,-6.86623 -0.98211,-10.35477 0.59362,-3.88096 2.20735,-7.31339 4.37249,-10.07453 2.9262,-3.68576 6.50217,-6.25094 9.90979,-8.03451 3.51932,-1.79896 7.02035,-2.2022 9.8902,-2.11365 3.74742,0.046 7.28078,0.63075 10.0694,1.14556 5.50938,0.99497 5.18802,1.07746 9.49094,1.77933 5.04683,0.77125 8.13935,0.75579 8.32064,1.28628 z"
         style="fill:#803300;fill-rule:evenodd;stroke:none;stroke-width:1px;stroke-linecap:butt;stroke-linejoin:miter;stroke-opacity:1" />
      <path
         style="fill:#c87137;fill-rule:evenodd;stroke:none;stroke-width:1px;stroke-linecap:butt;stroke-linejoin:miter;stroke-opacity:1"
         d="m 848.64952,488.80667 c 0.25243,0.77847 -2.20311,2.4639 -7.39629,2.9226 -2.68032,0.2591 -5.22609,0.2297 -8.71428,0.17772 -2.41405,-0.0291 -5.35189,-0.10055 -7.90281,0.18611 -1.97094,0.27375 -3.93803,0.60613 -5.09902,1.49044 -2.21074,1.42441 -4.38357,3.09183 -5.74142,5.09043 -0.95194,1.38208 -1.65612,2.97195 -1.76419,4.49431 -0.16233,1.38112 0.12133,2.94512 0.69672,4.49679 0.61319,1.64628 1.66793,3.26088 2.98445,4.83421 1.82606,2.16466 4.12576,4.04817 6.75262,5.58448 1.4763,0.86341 3.02393,1.59825 4.59983,2.20345 4.66291,1.6932 9.41256,2.23613 13.44055,1.13574 1.04388,-0.20542 2.27326,-0.90517 3.65639,-1.70125 1.7847,-1.07696 3.49681,-2.37316 5.12346,-3.71432 0,0 0,0 0,0 4.10629,-3.41597 7.37597,-6.8628 9.98764,-10.32274 1.35547,-1.81256 2.41187,-3.3968 3.19227,-5.02405 0.67145,-1.54068 1.15067,-2.63539 1.14188,-3.67244 0.0948,-0.80935 -0.25317,-1.68167 -0.74858,-2.19723 -2.409,-2.73117 -4.87831,-1.38421 -4.87831,-3.0329 0,0.029 2.16942,-2.57376 7.06331,-0.35902 1.60872,0.83831 3.17011,2.48431 3.69094,4.90784 0.41337,2.16949 0.20588,4.40861 -0.45325,6.48895 -0.66553,2.30694 -1.67577,4.56153 -2.97,6.81879 -2.45954,4.33012 -5.81257,8.71621 -10.16842,12.90774 0,0 0,10e-6 0,10e-6 -1.73517,1.68155 -3.70161,3.3755 -5.93535,4.92361 -1.58962,1.14587 -3.59527,2.31345 -6.09964,3.11863 -6.31005,1.84258 -13.1776,1.4493 -19.50684,-0.93169 -2.12155,-0.76524 -4.20561,-1.73515 -6.20595,-2.91273 -3.55918,-2.09526 -6.70656,-4.76109 -9.28705,-7.88693 -1.91345,-2.30456 -3.47371,-4.95856 -4.50496,-7.89077 -1.01117,-2.86563 -1.33654,-5.96752 -0.8931,-9.04159 0.56618,-3.43508 2.05025,-6.4104 4.00362,-8.75192 2.67547,-3.16983 5.85688,-5.30704 8.84208,-6.75808 3.19931,-1.52625 6.29186,-1.83973 8.80001,-1.73422 3.29789,0.0699 6.37709,0.59116 8.81023,1.05566 8.5743,1.59996 0.73261,0.26851 8.24424,1.63456 4.34453,0.7409 7.05874,0.90325 7.23922,1.45981 z"
         id="path4446"
         inkscape:path-effect="#path-effect4448-1"
         inkscape:original-d="m 848.64952,488.80667 c -8.41189,2.72771 -23.3458,-3.11329 -31.10305,1.18053 -25.96979,14.37486 2.85355,42.10042 24.26038,36.00656 11.48729,-3.27009 37.74938,-34.23574 16.17358,-34.23574"
         inkscape:connector-curvature="0" />
    </g>
    <g
       id="g4609"
       transform="matrix(-0.87472591,0.12740563,-0.11236067,-0.9918507,1113.2687,592.50897)">
      <g
         id="g4578">
        <g
           id="g4574">
          <g
             id="g4571">
            <path
               style="fill:#803300;fill-rule:evenodd;stroke:none;stroke-width:1px;stroke-linecap:butt;stroke-linejoin:miter;stroke-opacity:1"
               d="m 620.30194,536.62323 c -0.1263,0.89758 -4.03342,1.08276 -10.72912,1.28227 -11.19757,0.33364 -11.75369,0.34083 -27.82559,1.06896 -2.20956,0.055 -4.63473,1.4898 -6.16938,3.59419 -1.83547,2.38412 -2.79459,5.69961 -3.39761,9.46981 -0.51377,3.73774 -0.43056,7.68115 0.42264,11.50143 0.40594,2.20185 0.89387,4.31547 1.73735,5.82775 0.29953,0.53703 0.64252,0.99648 1.04106,1.36196 -0.18433,-0.0841 -0.34767,-0.17094 -0.49788,-0.25156 -0.27443,-0.14728 -0.49949,-0.27879 -0.67647,-0.3915 0,0 -10e-6,-10e-6 -10e-6,-10e-6 -0.0768,-0.0159 -0.0537,-0.0149 0.0676,0.0118 l 0,0 c 0.36528,0.0716 0.79986,0.13412 1.29602,0.20711 l 0,0 c 1.66884,0.24153 3.38617,0.44768 5.1031,0.65236 5.32968,0.63412 10.59739,1.19736 15.59187,1.7127 5.72072,0.58865 10.66087,1.08955 15.73101,1.45037 1.88896,0.13073 3.57024,0.24866 5.20036,0.25175 0.53807,-0.006 0.93618,0.003 1.21401,-0.0264 0,0 0,0 0,0 0.096,-0.0183 0.0645,0.007 -0.0949,0.0575 0,0 0,0 0,0 -0.0266,-0.10492 -0.44154,0.18883 -1.26987,0.83958 1.14661,-0.83016 1.90889,-2.75921 2.66264,-4.70383 0.95687,-2.74631 1.47093,-5.73168 1.83146,-8.33831 0.47359,-3.49074 0.66417,-6.66869 0.78363,-9.17662 0.21723,-4.84737 0.21125,-7.67398 0.90013,-7.85176 0.72987,-0.18836 2.21028,2.37568 3.28079,7.50234 0.55034,2.6187 1.01035,5.96961 1.08972,9.85112 0.0671,2.87898 -0.0766,6.31741 -0.86689,9.94016 -0.46986,2.51421 -1.52508,5.58139 -3.96998,8.40244 -0.98705,0.8119 -1.62268,1.1899 -1.86443,1.15764 0,0 -1e-5,0 -1e-5,0 -0.50411,0.16683 -0.89379,0.26341 -1.15893,0.30497 0,0 -10e-6,0 -10e-6,0 -0.84259,0.15603 -1.57789,0.22999 -2.19547,0.27183 -1.99709,0.15345 -3.92248,0.17235 -5.85474,0.16486 -5.22089,-0.0139 -10.49454,-0.26015 -16.20855,-0.62688 -5.09177,-0.32574 -10.43045,-0.75225 -15.90062,-1.32127 -1.74302,-0.18081 -3.55248,-0.37884 -5.39316,-0.63044 l 0,0 c -0.5184,-0.0696 -1.10376,-0.15363 -1.7502,-0.27198 l 0,0 c -0.16741,-0.0275 -0.43272,-0.0826 -0.79383,-0.17417 0,0 -2e-5,-1e-5 -2e-5,-1e-5 -0.26182,-0.13529 -0.57145,-0.29074 -0.92788,-0.46948 -0.19508,-0.0978 -0.4059,-0.20114 -0.62447,-0.31893 -1.0384,-1.04983 -1.9586,-2.15861 -2.77047,-3.30838 -2.29502,-3.25025 -3.67056,-6.75091 -4.43955,-10.01655 -1.07059,-5.13335 -1.07184,-10.27815 -0.23718,-15.09546 0.75656,-4.85607 2.58675,-9.61481 5.75772,-13.60597 3.37586,-4.14924 8.31567,-6.35773 13.28765,-6.35706 12.14468,0.36188 21.0614,1.16857 28.26548,2.49759 6.77542,1.24995 10.47194,2.70857 10.35296,3.55412 z"
               id="path4406"
               inkscape:path-effect="#path-effect4408-1"
               inkscape:original-d="m 620.30194,536.62323 c -12.64833,-1.77983 -25.58358,-1.94886 -38.58657,-1.85024 -16.51338,0.12525 -18.64243,30.55436 -8.98206,40.06928 0.67036,0.66025 45.30603,5.10476 47.16859,3.21376 5.93981,-6.0306 5.39411,-24.85462 3.32211,-32.88329"
               inkscape:connector-curvature="0" />
          </g>
        </g>
      </g>
      <g
         style="fill:#c87137"
         transform="translate(4.0406105,-1.0101501)"
         id="g4599">
        <g
           style="fill:#c87137"
           id="g4601">
          <g
             style="fill:#c87137"
             id="g4603">
            <path
               inkscape:connector-curvature="0"
               inkscape:original-d="m 616.87167,539.97564 c -11.06673,-1.43739 -22.3845,-1.5739 -33.76153,-1.49425 -14.44846,0.10115 -16.31129,24.67572 -7.85889,32.35997 0.58652,0.53322 39.64074,4.12261 41.2704,2.59544 5.19707,-4.87032 4.7196,-20.07261 2.90669,-26.55656"
               inkscape:path-effect="#path-effect4607"
               id="path4605"
               d="m 616.87167,539.97564 c -0.11802,0.90866 -3.56008,1.22958 -9.4224,1.53772 15.7862,-0.82977 -35.86625,1.79297 -24.3094,1.21565 -1.82607,0.0945 -3.84376,1.1528 -5.03708,2.75247 -1.43775,1.72167 -2.22776,4.25433 -2.7346,7.15163 -0.4201,2.86811 -0.34436,5.9016 0.36036,8.79612 0.31539,1.65396 0.68484,3.21664 1.28467,4.27319 0.21835,0.38461 0.46633,0.70117 0.75258,0.93508 -0.17824,-0.0765 -0.33764,-0.1554 -0.48456,-0.22873 -0.27124,-0.13538 -0.49525,-0.25655 -0.67301,-0.36099 0,0 -2e-5,-10e-6 -2e-5,-10e-6 -0.0802,-0.0157 -0.0673,-0.0164 0.038,0.005 l 0,0 c 0.31226,0.0569 0.68833,0.10712 1.12179,0.16648 l 0,0 c 1.45619,0.19604 2.95705,0.36464 4.45742,0.53286 4.6589,0.52138 9.28284,0.99567 13.6336,1.43495 5.05656,0.50911 9.29991,0.94096 13.75192,1.28085 1.65781,0.12325 3.11782,0.23599 4.53791,0.25858 0.47073,0.001 0.81074,0.0157 1.04469,-3.1e-4 0,0 0,0 0,0 0.50484,-0.35432 0.0834,-0.009 -1.3682,0.83308 0.85834,-0.4851 1.50981,-1.93029 2.17631,-3.43281 0.83069,-2.10562 1.29968,-4.46184 1.63877,-6.53553 0.44297,-2.77103 0.64585,-5.31593 0.78562,-7.32596 0,0 0,-1e-5 0,-1e-5 0.25482,-3.89091 0.33597,-6.19874 1.00228,-6.38504 0.70588,-0.19736 2.07417,1.82818 3.08526,6.01493 0,0 0,0 0,0 0.51683,2.1245 0.95498,4.85768 1.05344,8.04084 0.0823,2.36301 -0.029,5.20293 -0.72216,8.22617 -0.41717,2.14278 -1.4065,4.74638 -3.62694,7.15183 -1.81717,1.18688 -2.82062,1.571 -2.81941,1.28984 2e-5,-10e-6 0,0 0,0 -0.7479,0.13395 -1.39681,0.20064 -1.93844,0.24055 -1.75119,0.14372 -3.4387,0.17726 -5.13481,0.1884 -4.55385,0.0348 -9.17766,-0.12774 -14.19377,-0.39674 -4.44949,-0.23777 -9.12325,-0.56438 -13.92092,-1.01529 -1.52497,-0.14288 -3.11037,-0.30072 -4.72633,-0.50312 l 0,0 c -0.45384,-0.0557 -0.96989,-0.12383 -1.54352,-0.22043 l 0,0 c -0.14722,-0.022 -0.3863,-0.0679 -0.71572,-0.14488 0,0 -10e-6,-10e-6 -10e-6,-10e-6 -0.25187,-0.12265 -0.54979,-0.26311 -0.89299,-0.42398 -0.18588,-0.0871 -0.38649,-0.17884 -0.59532,-0.28313 -0.96248,-0.90134 -1.82067,-1.85689 -2.58087,-2.85068 -2.09754,-2.74207 -3.4,-5.70997 -4.12132,-8.50868 -0.97118,-4.30497 -0.97751,-8.63781 -0.21695,-12.68354 0.69163,-4.12134 2.41148,-8.14936 5.27591,-11.48438 3.21536,-3.58268 7.64711,-5.33592 11.98693,-5.28417 20.598,0.73218 34.06142,3.6619 33.79127,5.74187 z"
               style="fill:#c87137;fill-rule:evenodd;stroke:none;stroke-width:1px;stroke-linecap:butt;stroke-linejoin:miter;stroke-opacity:1" />
          </g>
        </g>
      </g>
    </g>
    <g
       id="g4625"
       transform="translate(-83.571429,-162.85714)">
      <circle
         r="10.357142"
         cy="340.16589"
         cx="523.92859"
         id="path4621"
         style="fill:#803300;fill-opacity:1;stroke:none" />
      <circle
         style="fill:#c87137;fill-opacity:1;stroke:none"
         id="circle4623"
         cx="525.14117"
         cy="338.25558"
         r="7.9485049" />
    </g>
    <g
       transform="matrix(0.51724136,0,0,0.51724136,102.21677,-0.0676919)"
       id="g4629">
      <circle
         style="fill:#803300;fill-opacity:1;stroke:none"
         id="circle4631"
         cx="523.92859"
         cy="340.16589"
         r="10.357142" />
      <circle
         r="7.9485049"
         cy="338.25558"
         cx="525.14117"
         id="circle4633"
         style="fill:#c87137;fill-opacity:1;stroke:none" />
    </g>
    <g
       id="g4635"
       transform="matrix(0.51724136,0,0,0.51724136,170.07391,-29.353406)">
      <circle
         r="10.357142"
         cy="340.16589"
         cx="523.92859"
         id="circle4637"
         style="fill:#803300;fill-opacity:1;stroke:none" />
      <circle
         style="fill:#c87137;fill-opacity:1;stroke:none"
         id="circle4639"
         cx="525.14117"
         cy="338.25558"
         r="7.9485049" />
    </g>
    <g
       transform="matrix(0.34482756,0,0,0.34482756,265.76357,39.653029)"
       id="g4641">
      <circle
         style="fill:#803300;fill-opacity:1;stroke:none"
         id="circle4643"
         cx="523.92859"
         cy="340.16589"
         r="10.357142" />
      <circle
         r="7.9485049"
         cy="338.25558"
         cx="525.14117"
         id="circle4645"
         style="fill:#c87137;fill-opacity:1;stroke:none" />
    </g>
    <g
       transform="matrix(-0.79310356,0,0,0.69514885,966.60104,-86.478307)"
       id="g4647">
      <circle
         style="fill:#803300;fill-opacity:1;stroke:none"
         id="circle4649"
         cx="523.92859"
         cy="340.16589"
         r="10.357142" />
      <circle
         r="7.9485049"
         cy="338.25558"
         cx="525.14117"
         id="circle4651"
         style="fill:#c87137;fill-opacity:1;stroke:none" />
    </g>
    <g
       id="g4653"
       transform="matrix(-0.586207,0,0,0.51380569,860.34488,-11.220121)">
      <circle
         r="10.357142"
         cy="340.16589"
         cx="523.92859"
         id="circle4655"
         style="fill:#803300;fill-opacity:1;stroke:none" />
      <circle
         style="fill:#c87137;fill-opacity:1;stroke:none"
         id="circle4657"
         cx="525.14117"
         cy="338.25558"
         r="7.9485049" />
    </g>
  </g>
  <g
     inkscape:groupmode="layer"
     id="layer6"
     inkscape:label="stones"
     style="filter:url(#filter4902)">
    <g
       id="g5876"
       transform="matrix(0.97818735,-0.20772459,0.20772459,0.97818735,-406.94106,67.887043)"
       style="stroke-width:0.2;stroke-miterlimit:4;stroke-dasharray:none">
      <path
         inkscape:connector-curvature="0"
         inkscape:original-d="m 747.88841,432.82129 c -10.71767,-0.71504 -14.92012,3.17403 -22.14285,11.42858 -7.84078,8.96089 -17.54016,17.22317 -22.85715,27.85714 -2.45568,4.91138 4.48552,13.18557 7.85715,15.71429 7.11382,5.33536 15.41357,3.36842 23.57143,5 27.36528,5.47305 38.55862,0.7783 43.57142,-24.28572 0.57605,-2.88024 7.31308,-15.54406 4.28572,-18.57143 -5.81332,-5.81332 -20.10623,-10.7674 -25.71429,-13.57143"
         inkscape:path-effect="#path-effect4396-9-6"
         id="path4394-7"
         d="m 747.88841,432.82129 c -0.13827,2.07245 -4.9312,-0.33258 -11.18692,4.40619 -3.06399,2.14637 -4.97203,4.81107 -8.48535,9.18415 -4.30571,5.46854 -6.74738,7.80665 -11.82974,13.85775 -3.43114,4.1182 -7.08567,8.80888 -9.42755,13.87285 -0.0937,-0.12438 0.0857,0.33957 0.15844,1.06376 0.21724,0.93232 0.80247,1.96929 1.53642,3.17054 0.75252,1.17262 1.65368,2.30423 2.66762,3.40139 0.83204,0.87473 1.59341,1.6408 2.33723,2.15936 0,0 1e-5,0 1e-5,0 2.15283,1.71239 5.36035,2.43027 8.95119,2.83418 3.52865,0.30345 7.99989,0.25891 12.68776,1.1472 0.35448,0.0693 0.70889,0.1381 1.06304,0.20603 5.47446,1.0501 10.58736,1.84166 15.54262,1.79702 3.96065,-0.0895 7.55354,-0.5344 10.33482,-2.03782 2.67482,-1.27453 4.90233,-3.74878 6.56429,-6.46644 2.45408,-4.03502 3.83904,-9.02694 4.96481,-13.70613 0.23207,-0.96873 0.49591,-1.66736 0.70121,-2.12424 0.32877,-0.81072 0.66551,-1.57132 0.97987,-2.27594 0.84575,-1.90378 1.60823,-3.58167 2.29024,-5.29209 0.69756,-1.80388 1.27887,-3.30839 1.52938,-4.74688 0.0836,-0.57706 0.16675,-0.96939 0.13828,-1.19335 0,0 10e-6,0 10e-6,0 -0.098,-0.14553 0.10692,-0.009 0.33656,0.3168 -2.92955,-3.42454 -8.23484,-6.18389 -11.5433,-8.09829 -3.01795,-1.71702 -4.63881,-2.58119 -6.83036,-3.88281 0,0 0,0 0,0 -3.44879,-2.04945 -5.19609,-3.44793 -4.90915,-4.0218 0.23468,-0.46935 2.42011,-0.11924 6.22336,0.95018 0,0 10e-6,0 10e-6,0 1.97284,0.55166 4.7042,1.39358 7.59746,2.45967 3.64796,1.3016 9.53084,3.44791 14.32494,7.73011 1.06327,1.17029 1.63825,2.36727 1.75388,3.41488 0,0 0,10e-6 0,10e-6 0.20792,1.22952 0.20925,2.33053 0.098,3.2564 -0.23429,2.29877 -0.79142,4.40257 -1.43086,6.38706 -0.62279,1.98567 -1.31065,3.85561 -2.02126,5.78666 -0.26748,0.72926 -0.52831,1.43656 -0.74948,2.10486 -0.15765,0.51955 -0.27125,0.81186 -0.24621,0.87729 -0.82963,5.09967 -2.21379,10.95881 -5.18432,16.57022 -2.14705,4.055 -5.49292,7.86989 -10.09364,10.44574 -4.70008,2.45562 -9.7982,3.40175 -14.70529,3.42294 -5.99714,0.0921 -11.8196,-0.71639 -17.57686,-1.85134 -0.37269,-0.0735 -0.74378,-0.14803 -1.11315,-0.22346 -3.24142,-0.69722 -7.39506,-0.63586 -11.6667,-1.07496 -4.71055,-0.38617 -9.58733,-1.85387 -13.83721,-4.94366 0,0 -10e-6,-10e-6 -10e-6,-10e-6 -1.47094,-1.14258 -2.66376,-2.35267 -3.65358,-3.50363 -1.32414,-1.50246 -2.52622,-3.12502 -3.56918,-4.8629 -1.05167,-1.6933 -1.96435,-3.68973 -2.51514,-5.98726 -0.59411,-2.07912 -0.44413,-4.63914 0.72333,-7.27973 3.26002,-6.13778 7.58614,-11.16847 11.53676,-15.2391 0.34244,-0.35554 13.70191,-13.54485 12.92025,-12.74458 3.77104,-3.95658 6.96005,-6.95038 11.0363,-8.97163 9.0498,-4.23646 13.55216,0.0791 13.57713,-0.29519 z"
         style="fill:#241f1c;fill-rule:evenodd;stroke:none;stroke-width:0.2;stroke-linecap:butt;stroke-linejoin:miter;stroke-opacity:1;stroke-miterlimit:4;stroke-dasharray:none" />
      <path
         style="fill:#6c5d53;fill-rule:evenodd;stroke:none;stroke-width:0.2;stroke-linecap:butt;stroke-linejoin:miter;stroke-opacity:1;stroke-miterlimit:4;stroke-dasharray:none"
         d="m 747.9558,434.35169 c -0.13011,1.95025 -4.40985,-0.10984 -9.82412,4.14747 -2.67428,1.92165 -4.29536,4.26569 -7.41104,8.18501 -3.77256,4.85305 -6.02312,7.05385 -10.46772,12.39379 -3.02511,3.6677 -6.24006,7.82312 -8.27386,12.27078 -0.0284,-0.32722 0.15749,0.099 0.18953,0.6046 0.17497,0.75458 0.67777,1.62463 1.31345,2.66658 1.27852,1.90137 2.70061,3.65137 4.33196,4.79433 1.80045,1.44812 4.56315,2.04571 7.69712,2.40615 3.10002,0.26267 7.09536,0.22379 11.3475,1.0249 0.31468,0.0614 0.62921,0.12226 0.9434,0.18242 4.85633,0.92985 9.36738,1.63334 13.7199,1.59623 3.47264,-0.0834 6.58726,-0.45176 8.95683,-1.73732 2.27442,-1.06267 4.19525,-3.19074 5.64757,-5.53573 2.15559,-3.50443 3.38812,-7.89866 4.40629,-12.03998 0.22072,-0.91192 0.46371,-1.55581 0.64908,-1.95906 0.29854,-0.7294 0.60233,-1.40908 0.88471,-2.03487 0.76043,-1.69343 1.44242,-3.1747 2.05297,-4.68241 0.6241,-1.59567 1.14252,-2.90107 1.36647,-4.13416 -0.22453,-1.16683 0.35181,-1.16803 0.55063,-0.4612 0,0 0,0 0,0 -2.50784,-3.00177 -7.19078,-5.48849 -10.11972,-7.22724 -6.7876,-3.96571 -10.88933,-6.16911 -10.33292,-7.28193 0.24881,-0.49762 4.87045,0.0809 12.41421,2.78722 3.26696,1.12466 8.53045,3.00089 12.90136,6.85903 0,0 10e-6,0 10e-6,0 1.86333,2.4771 2.287,4.85967 1.77614,6.25592 -0.20766,2.09323 -0.70203,3.99819 -1.26794,5.77434 -0.55117,1.78266 -1.15887,3.45657 -1.784,5.17698 -0.2355,0.65045 -0.46337,1.27677 -0.65432,1.86378 -0.13774,0.46608 -0.23043,0.70332 -0.19406,0.71212 -0.72201,4.56169 -1.95381,9.82335 -4.6258,14.90406 -1.93742,3.68231 -4.97661,7.15107 -9.17693,9.51504 -4.28837,2.23776 -8.90821,3.10732 -13.3273,3.12243 -5.39438,0.0845 -10.61498,-0.63585 -15.75413,-1.65054 -0.33273,-0.0657 -0.66393,-0.13238 -0.99351,-0.19985 -2.80574,-0.61007 -6.48338,-0.55434 -10.32644,-0.95268 -4.2537,-0.34269 -8.68561,-1.6901 -12.58312,-4.51563 -2.85987,-2.22565 -4.99323,-4.90534 -6.54989,-7.6001 -0.9534,-1.53401 -1.78365,-3.36351 -2.29217,-5.48329 -0.55736,-1.92461 -0.40586,-4.31871 0.69224,-6.82058 2.95188,-5.52139 6.83854,-10.01699 10.38307,-13.63704 1.51099,-1.55637 11.06674,-10.78438 11.55823,-11.28061 3.37212,-3.50072 6.27674,-6.17805 9.96199,-7.97249 8.20801,-3.74994 12.19785,0.21056 12.21433,-0.0365 z"
         id="path4426-9"
         inkscape:path-effect="#path-effect4428-9-5"
         inkscape:original-d="m 747.9558,434.35169 c -9.53806,-0.63634 -13.27797,2.82469 -19.70574,10.17072 -6.97781,7.97463 -15.60965,15.32754 -20.34144,24.79111 -2.1854,4.37082 3.99183,11.73433 6.99238,13.98474 6.33085,4.74813 13.71711,2.99768 20.97709,4.44968 24.35339,4.87067 34.31476,0.69264 38.77583,-21.61276 0.51265,-2.56325 6.50819,-13.83324 3.81402,-16.52742 -5.17348,-5.17348 -17.89327,-9.5823 -22.88411,-12.07771"
         inkscape:connector-curvature="0" />
    </g>
  </g>
  <g
     inkscape:groupmode="layer"
     id="layer3"
     inkscape:label="Foliage">
    <g
       id="g4665"
       transform="translate(17.142857,-7.1428572)">
      <path
         style="fill:#445500;fill-opacity:1;fill-rule:evenodd;stroke:none;stroke-width:1px;stroke-linecap:butt;stroke-linejoin:miter;stroke-opacity:1"
         d="m 703.14039,77.333433 -23.39959,25.526857 34.03577,-17.72699 19.85421,45.38104 -10.63618,-50.344581 56.7263,6.381697 -57.43538,-20.563281 29.07223,5.672623 -11.34526,-9.927102 -62.39893,2.127239 24.81776,4.254478 -24.10868,15.59973 z"
         id="path4661"
         inkscape:connector-curvature="0" />
      <path
         inkscape:connector-curvature="0"
         id="path4360"
         d="m 703.20548,76.437833 -23.57142,25.714297 34.28571,-17.857153 20,45.714283 -10.71429,-50.714273 57.14286,6.42856 -57.85714,-20.714284 29.28571,5.71428 -11.42857,-10 -62.85714,2.14286 25,4.28572 -24.28572,15.714284 z"
         style="fill:#88aa00;fill-opacity:1;fill-rule:evenodd;stroke:none;stroke-width:1px;stroke-linecap:butt;stroke-linejoin:miter;stroke-opacity:1" />
    </g>
    <g
       id="g4669">
      <path
         inkscape:connector-curvature="0"
         id="path4663"
         d="m 853.91163,73.936946 5.28022,32.676324 C 855.9456,98.5725 850.11986,85.096933 845.61847,80.482371 l -8.54171,17.431881 -4.03245,-20.559636 -17.66164,1.412803 11.73215,-8.092828 -5.50342,-5.398984 14.5067,-4.429506 32.58426,1.536114 -12.95965,3.072229 8.75475,14.369055 z"
         style="fill:#445500;fill-rule:evenodd;stroke:none;stroke-width:1px;stroke-linecap:butt;stroke-linejoin:miter;stroke-opacity:1"
         sodipodi:nodetypes="ccccccccccccc" />
      <path
         sodipodi:nodetypes="ccccccccccccc"
         style="fill:#88aa00;fill-rule:evenodd;stroke:none;stroke-width:1px;stroke-linecap:butt;stroke-linejoin:miter;stroke-opacity:1"
         d="m 853.9022,72.890396 5.16368,31.955104 c -3.1746,-7.863295 -8.87176,-21.041435 -13.2738,-25.554147 l -8.35318,17.047132 -3.94345,-20.105852 -17.27182,1.38162 11.47321,-7.914207 -5.38195,-5.27982 14.18651,-4.33174 31.86508,1.50221 -12.67361,3.00442 8.56151,14.051907 z"
         id="path4362"
         inkscape:connector-curvature="0" />
    </g>
    <g
       id="g4673"
       transform="matrix(-1,0,0,1,1150.6966,24.285714)">
      <path
         inkscape:connector-curvature="0"
         id="path4675"
         d="m 703.14039,77.333433 -23.39959,25.526857 34.03577,-17.72699 19.85421,45.38104 -10.63618,-50.344581 56.7263,6.381697 -57.43538,-20.563281 29.07223,5.672623 -11.34526,-9.927102 -62.39893,2.127239 24.81776,4.254478 -24.10868,15.59973 z"
         style="fill:#445500;fill-opacity:1;fill-rule:evenodd;stroke:none;stroke-width:1px;stroke-linecap:butt;stroke-linejoin:miter;stroke-opacity:1" />
      <path
         style="fill:#88aa00;fill-opacity:1;fill-rule:evenodd;stroke:none;stroke-width:1px;stroke-linecap:butt;stroke-linejoin:miter;stroke-opacity:1"
         d="m 703.20548,76.437833 -23.57142,25.714297 34.28571,-17.857153 20,45.714283 -10.71429,-50.714273 57.14286,6.42856 -57.85714,-20.714284 29.28571,5.71428 -11.42857,-10 -62.85714,2.14286 25,4.28572 -24.28572,15.714284 z"
         id="path4677"
         inkscape:connector-curvature="0" />
    </g>
    <g
       id="g4679"
       transform="matrix(-1,0,0,1,1372.6565,25)">
      <path
         sodipodi:nodetypes="ccccccccccccc"
         style="fill:#445500;fill-rule:evenodd;stroke:none;stroke-width:1px;stroke-linecap:butt;stroke-linejoin:miter;stroke-opacity:1"
         d="m 853.91163,73.936946 5.28022,32.676324 C 855.9456,98.5725 850.11986,85.096933 845.61847,80.482371 l -8.54171,17.431881 -4.03245,-20.559636 -17.66164,1.412803 11.73215,-8.092828 -5.50342,-5.398984 14.5067,-4.429506 32.58426,1.536114 -12.95965,3.072229 8.75475,14.369055 z"
         id="path4681"
         inkscape:connector-curvature="0" />
      <path
         inkscape:connector-curvature="0"
         id="path4683"
         d="m 853.9022,72.890396 5.16368,31.955104 c -3.1746,-7.863295 -8.87176,-21.041435 -13.2738,-25.554147 l -8.35318,17.047132 -3.94345,-20.105852 -17.27182,1.38162 11.47321,-7.914207 -5.38195,-5.27982 14.18651,-4.33174 31.86508,1.50221 -12.67361,3.00442 8.56151,14.051907 z"
         style="fill:#88aa00;fill-rule:evenodd;stroke:none;stroke-width:1px;stroke-linecap:butt;stroke-linejoin:miter;stroke-opacity:1"
         sodipodi:nodetypes="ccccccccccccc" />
    </g>
  </g>
</svg>
