<?xml version="1.0" encoding="UTF-8" standalone="no"?>
<!-- Created with Inkscape (http://www.inkscape.org/) -->

<svg
   xmlns:dc="http://purl.org/dc/elements/1.1/"
   xmlns:cc="http://creativecommons.org/ns#"
   xmlns:rdf="http://www.w3.org/1999/02/22-rdf-syntax-ns#"
   xmlns:svg="http://www.w3.org/2000/svg"
   xmlns="http://www.w3.org/2000/svg"
   xmlns:sodipodi="http://sodipodi.sourceforge.net/DTD/sodipodi-0.dtd"
   xmlns:inkscape="http://www.inkscape.org/namespaces/inkscape"
   width="297mm"
   height="210mm"
   viewBox="0 0 1052.3622 744.09448"
   id="svg5501"
   version="1.1"
   inkscape:version="0.91 r13725"
   sodipodi:docname="SharkShark.svg">
  <defs
     id="defs5503">
    <inkscape:path-effect
       effect="skeletal"
       id="path-effect6095"
       is_visible="true"
       pattern="m 1.1585979,308.86504 c 0,-2.76 2.24,-5 5,-5 2.76,0 5.0000001,2.24 5.0000001,5 0,2.76 -2.2400001,5 -5.0000001,5 -2.76,0 -5,-2.24 -5,-5 z"
       copytype="single_stretched"
       prop_scale="1"
       scale_y_rel="false"
       spacing="0"
       normal_offset="0"
       tang_offset="0"
       prop_units="false"
       vertical_pattern="false"
       fuse_tolerance="0" />
    <inkscape:path-effect
       effect="skeletal"
       id="path-effect6085"
       is_visible="true"
       pattern="m 7.4150266,313.26772 c 0,-2.76 2.24,-5 5.0000004,-5 2.76,0 5,2.24 5,5 0,2.76 -2.24,5 -5,5 -2.7600004,0 -5.0000004,-2.24 -5.0000004,-5 z"
       copytype="single_stretched"
       prop_scale="1"
       scale_y_rel="false"
       spacing="0"
       normal_offset="0"
       tang_offset="0"
       prop_units="false"
       vertical_pattern="false"
       fuse_tolerance="0" />
    <inkscape:path-effect
       effect="skeletal"
       id="path-effect6081"
       is_visible="true"
       pattern="m 0,313.26772 c 0,-2.76 2.24,-5 5,-5 2.76,0 5,2.24 5,5 0,2.76 -2.24,5 -5,5 -2.76,0 -5,-2.24 -5,-5 z"
       copytype="single_stretched"
       prop_scale="1"
       scale_y_rel="false"
       spacing="0"
       normal_offset="0"
       tang_offset="0"
       prop_units="false"
       vertical_pattern="false"
       fuse_tolerance="0" />
    <inkscape:path-effect
       effect="skeletal"
       id="path-effect6077"
       is_visible="true"
       pattern="m 38.002011,306.77958 c 0,-2.76 2.24,-5 5,-5 2.76,0 5,2.24 5,5 0,2.76 -2.24,5 -5,5 -2.76,0 -5,-2.24 -5,-5 z"
       copytype="single_stretched"
       prop_scale="1"
       scale_y_rel="false"
       spacing="0"
       normal_offset="0"
       tang_offset="0"
       prop_units="false"
       vertical_pattern="false"
       fuse_tolerance="0" />
    <inkscape:path-effect
       effect="skeletal"
       id="path-effect6073"
       is_visible="true"
       pattern="m 33.097798,309.33531 c 0,-2.76 2.24,-5 5,-5 2.76,0 5,2.24 5,5 0,2.76 -2.24,5 -5,5 -2.76,0 -5,-2.24 -5,-5 z"
       copytype="single_stretched"
       prop_scale="1"
       scale_y_rel="false"
       spacing="0"
       normal_offset="0"
       tang_offset="0"
       prop_units="false"
       vertical_pattern="false"
       fuse_tolerance="0" />
    <inkscape:path-effect
       effect="skeletal"
       id="path-effect6069"
       is_visible="true"
       pattern="m 27.526882,309.99071 c 0,-2.76 2.24,-5 5,-5 2.76,0 5,2.24 5,5 0,2.76 -2.24,5 -5,5 -2.76,0 -5,-2.24 -5,-5 z"
       copytype="single_stretched"
       prop_scale="1"
       scale_y_rel="false"
       spacing="0"
       normal_offset="0"
       tang_offset="0"
       prop_units="false"
       vertical_pattern="false"
       fuse_tolerance="0" />
    <inkscape:path-effect
       effect="skeletal"
       id="path-effect6065"
       is_visible="true"
       pattern="m 24.905274,309.33531 c 0,-2.76 2.24,-5 5,-5 2.76,0 5,2.24 5,5 0,2.76 -2.24,5 -5,5 -2.76,0 -5,-2.24 -5,-5 z"
       copytype="single_stretched"
       prop_scale="1"
       scale_y_rel="false"
       spacing="0"
       normal_offset="0"
       tang_offset="0"
       prop_units="false"
       vertical_pattern="false"
       fuse_tolerance="0" />
    <inkscape:path-effect
       effect="skeletal"
       id="path-effect6061"
       is_visible="true"
       pattern="m -243.15412,192.01837 c 0,-2.76 2.24,-5 5,-5 2.76,0 5,2.24 5,5 0,2.76 -2.24,5 -5,5 -2.76,0 -5,-2.24 -5,-5 z"
       copytype="single_stretched"
       prop_scale="1"
       scale_y_rel="false"
       spacing="0"
       normal_offset="0"
       tang_offset="0"
       prop_units="false"
       vertical_pattern="false"
       fuse_tolerance="0" />
  </defs>
  <sodipodi:namedview
     id="base"
     pagecolor="#ffffff"
     bordercolor="#666666"
     borderopacity="1.0"
     inkscape:pageopacity="0.0"
     inkscape:pageshadow="2"
     inkscape:zoom="0.76289062"
     inkscape:cx="587.17021"
     inkscape:cy="394.61904"
     inkscape:document-units="px"
     inkscape:current-layer="layer1"
     showgrid="false"
     inkscape:window-width="1366"
     inkscape:window-height="705"
     inkscape:window-x="-8"
     inkscape:window-y="-8"
     inkscape:window-maximized="1" />
  <metadata
     id="metadata5506">
    <rdf:RDF>
      <cc:Work
         rdf:about="">
        <dc:format>image/svg+xml</dc:format>
        <dc:type
           rdf:resource="http://purl.org/dc/dcmitype/StillImage" />
        <dc:title />
      </cc:Work>
    </rdf:RDF>
  </metadata>
  <g
     inkscape:label="Body"
     inkscape:groupmode="layer"
     id="layer1"
     transform="translate(0,-308.26772)">
    <path
       style="fill:#666666;fill-opacity:1;fill-rule:evenodd;stroke:none;stroke-width:3;stroke-linecap:butt;stroke-linejoin:miter;stroke-miterlimit:4;stroke-dasharray:none;stroke-opacity:0.76300581"
       d="m 713.06368,566.80817 -101.05,-22.74712 c -8.38739,-28.25081 9.27128,-30.34374 49.17444,-53.62251 -64.11285,-13.65528 -125.3542,-4.33859 -182.48121,37.89288 -138.99513,-4.59233 -235.61428,14.41118 -363.35617,78.35746 l 2.46259,4.93881 c 0.0171,8.85318 20.26462,10.63015 32.92912,16.03405 0.003,0.002 35.17901,12.96625 38.01331,19.66206 4.39547,10.38399 46.3278,19.888 55.05376,20.97286 51.32164,7.09919 94.69423,17.51618 140.25602,27.52688 23.12795,31.57752 56.46022,44.82728 97.69016,58.82716 5.24322,3.93241 39.94425,4.09143 39.94425,4.09143 -21.79577,-18.60879 -45.99264,-36.86186 -35.47122,-60.25839 37.89108,-3.67764 85.61002,-18.26623 113.51063,-19.95283 35.73705,-2.70118 96.06696,-8.47364 96.06696,-8.47364 103.88649,-4.30831 63.82839,-82.05927 27.75743,-99.4155"
       id="path6049"
       inkscape:connector-curvature="0"
       sodipodi:nodetypes="cccccccscccccccc" />
    <path
       style="fill:#b3b3b3;fill-rule:evenodd;stroke:none;stroke-width:1px;stroke-linecap:butt;stroke-linejoin:miter;stroke-opacity:1"
       d="m 261.50538,560.15535 c -0.37218,-1.25424 10.20701,-5.97868 28.16118,-11.05963 18.52385,-5.24217 42.58964,-10.20863 71.50838,-13.31603 28.28757,-3.03957 54.14587,-3.53689 72.75151,-3.07241 18.63723,0.46526 30.09813,1.86679 30.09813,3.1982 0,1.42505 -11.45692,2.53395 -29.92947,3.88292 -18.31795,1.33769 -44.1085,2.97062 -71.85409,5.9372 -29.33466,3.13649 -51.47451,6.72897 -70.98386,10.24473 -18.07994,3.25816 -29.339,5.57612 -29.75178,4.18502 z"
       id="path6059"
       inkscape:path-effect="#path-effect6061"
       inkscape:original-d="m 261.50538,560.15535 c 63.98326,-18.98594 134.78819,-24.24987 202.5192,-24.24987"
       inkscape:connector-curvature="0" />
    <path
       style="fill:#000000;fill-rule:evenodd;stroke:none;stroke-width:1px;stroke-linecap:butt;stroke-linejoin:miter;stroke-opacity:1"
       d="m 315.24833,602.77023 c 1.34087,-0.24067 3.04957,1.75288 4.17468,5.53821 1.14044,3.83696 1.53474,9.05966 0.60195,14.92308 -0.91807,5.77096 -2.88092,10.67876 -4.82723,13.94355 -1.95358,3.277 -3.90407,4.96464 -5.19261,4.53084 -1.31583,-0.44299 -1.76804,-2.94034 -1.62137,-6.59568 0.14998,-3.73807 0.88997,-8.36081 1.76722,-13.5028 0.66196,-3.8801 1.82536,-10.69887 2.27542,-12.88596 0.68633,-3.33533 1.4481,-5.70466 2.82194,-5.95124 z"
       id="path6063"
       inkscape:path-effect="#path-effect6065"
       inkscape:original-d="m 315.24833,602.77023 c 2.50578,13.96094 -1.54397,27.94758 -5.24321,38.93568"
       inkscape:connector-curvature="0" />
    <path
       style="fill:#b3b3b3;fill-opacity:1;fill-rule:evenodd;stroke:none;stroke-width:1px;stroke-linecap:butt;stroke-linejoin:miter;stroke-opacity:1"
       d="m 638.37403,493.45258 c 0.001,1.42372 -7.64685,2.55703 -19.93036,3.76301 -11.54928,1.13389 -29.87815,2.55104 -47.43346,5.17044 -3.02001,0.45061 -5.97213,0.92742 -8.87191,1.43346 0,0 0,0 0,0 -17.10793,3.02862 -29.03828,6.50642 -39.55605,10.54481 -9.5889,3.68175 -15.26358,6.77265 -16.05183,5.66752 -0.67334,-0.94402 3.71344,-5.99753 13.17217,-11.58872 9.88239,-5.84164 23.26726,-11.05534 40.64175,-14.37048 0,0 0,0 0,0 3.00228,-0.58024 6.06676,-1.10349 9.19385,-1.56856 18.79571,-2.7953 36.46258,-2.95717 48.73294,-2.36415 12.45814,0.60209 20.10187,1.98006 20.1029,3.31267 z"
       id="path6075"
       inkscape:path-effect="#path-effect6077"
       inkscape:original-d="m 638.37403,493.45258 c -59.10681,0.0456 -102.63254,5.74392 -131.84361,26.57924"
       inkscape:connector-curvature="0" />
    <path
       style="fill:#000000;fill-rule:evenodd;stroke:none;stroke-width:1px;stroke-linecap:butt;stroke-linejoin:miter;stroke-opacity:1"
       d="m 234.92195,589.34468 c -0.71537,-2.74037 5.0291,-6.48441 13.12842,-7.38984 0,0 0.002,-1.7e-4 0.002,-1.7e-4 7.67346,-0.86752 14.01065,0.81157 14.38527,3.3858 0.19934,1.36981 -1.17663,2.83165 -3.62948,4.03712 -2.47765,1.21766 -5.85923,2.08881 -9.63444,2.51401 0,0 -0.001,1.7e-4 -0.001,1.7e-4 -7.1867,0.81919 -13.58248,0.009 -14.24983,-2.54709 z"
       id="path6083"
       inkscape:path-effect="#path-effect6085"
       inkscape:original-d="m 234.92195,589.34468 c 9.90827,-2.58655 17.42432,-2.53571 27.51524,-4.00421"
       inkscape:connector-curvature="0" />
    <path
       style="fill:#ff0000;fill-rule:evenodd;stroke:none;stroke-width:1px;stroke-linecap:butt;stroke-linejoin:miter;stroke-opacity:1"
       d="m 246.37685,586.50019 c 0.0497,-0.34307 0.10583,-0.65875 0.17262,-0.9801 0,0 0,0 0,0 0.0584,-0.27892 0.12308,-0.54799 0.19306,-0.80534 0.13863,-0.50984 0.29786,-0.97235 0.47026,-1.37265 0,0 0,0 0,0 l 0,0 c 0.33625,-0.77753 0.72362,-1.31559 1.104,-1.49492 0,0 0,0 0,0 0.11215,-0.0574 0.22544,-0.0794 0.33885,-0.0621 0.94996,0.14509 1.30565,2.49404 0.75249,5.20305 -0.55004,2.69371 -1.54802,4.79467 -2.2737,4.6821 -0.10666,-0.0165 -0.20802,-0.0714 -0.30266,-0.16054 0,0 0,0 0,0 -0.28105,-0.28018 -0.47534,-0.90637 -0.56382,-1.74559 l 0,0 c 0,0 0,0 0,0 -0.0462,-0.43188 -0.0637,-0.92129 -0.0498,-1.44862 0.007,-0.26638 0.0221,-0.54279 0.0456,-0.82665 0,0 0,0 0,0 0.0276,-0.32702 0.0634,-0.64556 0.1131,-0.98866 z"
       id="path6093"
       inkscape:path-effect="#path-effect6095"
       inkscape:original-d="m 246.37647,586.50014 c 0,0 2.14348,0.30665 3.03166,0.48801"
       inkscape:connector-curvature="0"
       sodipodi:nodetypes="cc" />
  </g>
  <g
     inkscape:groupmode="layer"
     id="layer2"
     inkscape:label="Tail">
    <path
       style="fill:#666666;fill-opacity:1;fill-rule:evenodd;stroke:none;stroke-width:1px;stroke-linecap:butt;stroke-linejoin:miter;stroke-opacity:1"
       d="m 904.45472,314.1508 c 57.7294,-36.25029 85.16923,-73.42343 110.10748,-95.03329 25.0008,-18.42158 53.9896,-1.78788 44.5674,-2.6216 -38.6961,-3.42403 -83.81361,75.79109 -98.31031,104.20891 -6.51372,16.69235 -1.40413,52.93066 35.39171,87.16846 -14.6622,16.52886 -69.90955,-42.81959 -95.03329,-53.08756"
       id="path4229"
       inkscape:connector-curvature="0"
       sodipodi:nodetypes="ccsccc" />
    <path
       style="fill:#666666;fill-opacity:1;fill-rule:evenodd;stroke:none;stroke-width:1px;stroke-linecap:butt;stroke-linejoin:miter;stroke-opacity:1"
       d="m 725.99173,264.89839 -6.27071,93.61472 c 64.70972,-5.30515 123.25026,-11.88056 189.08317,-3.70751 l 5.56127,-40.31921 c -61.40661,0.69744 -125.32231,-29.28614 -188.37373,-49.588 z"
       id="path4183"
       inkscape:connector-curvature="0"
       sodipodi:nodetypes="ccccc" />
  </g>
  <g
     inkscape:groupmode="layer"
     id="layer4"
     inkscape:label="Laser"
     sodipodi:insensitive="true">
    <g
       id="g6129">
      <path
         inkscape:connector-curvature="0"
         id="path6123"
         d="m 362.40942,201.40723 19.00101,-14.36662 61.63741,-0.46344 9.73222,-8.80534 22.70852,1.85375 0.46344,21.78165 z"
         style="fill:#808080;fill-rule:evenodd;stroke:#000000;stroke-width:1px;stroke-linecap:butt;stroke-linejoin:miter;stroke-opacity:1" />
      <path
         inkscape:connector-curvature="0"
         id="path6127"
         d="m 335.99339,200.01691 -134.86079,-4.17095 0.92687,9.73222 135.78768,-0.92688"
         style="fill:#999999;fill-rule:evenodd;stroke:#000000;stroke-width:1px;stroke-linecap:butt;stroke-linejoin:miter;stroke-opacity:1" />
    </g>
    <g
       id="g6116">
      <path
         inkscape:connector-curvature="0"
         inkscape:original-d="m 330.72641,604.19452 -4.08467,31.8602"
         inkscape:path-effect="#path-effect6069"
         id="path6067"
         d="m 330.72641,604.19452 c 2.73759,0.35098 4.04444,7.77251 2.91707,16.56593 -1.12737,8.79341 -4.26415,15.64525 -7.00174,15.29427 -2.73759,-0.35098 -4.04444,-7.77251 -2.91707,-16.56593 1.12737,-8.79341 4.26415,-15.64525 7.00174,-15.29427 z"
         style="fill:#000000;fill-rule:evenodd;stroke:none;stroke-width:1px;stroke-linecap:butt;stroke-linejoin:miter;stroke-opacity:1"
         transform="translate(0,-308.26772)" />
      <path
         inkscape:connector-curvature="0"
         inkscape:original-d="m 343.43166,605.48071 c 0.46194,7.97758 -0.30402,16.36454 -0.4423,23.80753"
         inkscape:path-effect="#path-effect6073"
         id="path6071"
         d="m 343.43166,605.48071 c 2.83689,-0.16427 5.25548,5.2585 5.00437,12.0876 -0.24311,6.61192 -2.77856,11.7695 -5.44667,11.71993 -2.84542,-0.0529 -4.80188,-5.55937 -4.54949,-12.09653 0.24347,-6.30635 2.3335,-11.55707 4.99179,-11.711 z"
         style="fill:#000000;fill-rule:evenodd;stroke:none;stroke-width:1px;stroke-linecap:butt;stroke-linejoin:miter;stroke-opacity:1"
         transform="translate(0,-308.26772)" />
      <path
         inkscape:connector-curvature="0"
         id="path6098"
         d="m 361.48255,218.55447 29.6601,55.6127 123.27482,7.41503 -36.14826,-63.9546 4.6344,-22.24508 -147.37366,0.92687 0.92688,15.75694 z"
         style="fill:#4d4d4d;fill-rule:evenodd;stroke:#000000;stroke-width:1px;stroke-linecap:butt;stroke-linejoin:miter;stroke-opacity:1" />
      <path
         sodipodi:nodetypes="ccccc"
         inkscape:connector-curvature="0"
         id="path6102"
         d="m 507.30562,281.18187 -24.17434,-1.74613 24.47394,110.50261 23.54706,-4.77495 z"
         style="fill:#333333;fill-rule:evenodd;stroke:#000000;stroke-width:1px;stroke-linecap:butt;stroke-linejoin:miter;stroke-opacity:1" />
      <path
         sodipodi:nodetypes="ccccc"
         inkscape:connector-curvature="0"
         id="path6110"
         d="m 418.41198,276.3788 -43.95314,110.86753 -20.79426,-5.2475 43.73761,-107.66575 z"
         style="fill:#333333;fill-rule:evenodd;stroke:#000000;stroke-width:1px;stroke-linecap:butt;stroke-linejoin:miter;stroke-opacity:1" />
    </g>
    <path
       style="fill:#00ff00;fill-rule:evenodd;stroke:#000000;stroke-width:1px;stroke-linecap:butt;stroke-linejoin:miter;stroke-opacity:1"
       d="m 340.48131,200.76627 0,9.17563 21.30056,4.58781 -1.3108,-9.17563 117.64465,-1.6385 c 0,0 1.96621,-5.57092 0.6554,-5.57092 -1.3108,0 -138.28981,2.62161 -138.28981,2.62161 z"
       id="path6137"
       inkscape:connector-curvature="0" />
    <path
       style="fill:#cccccc;fill-rule:evenodd;stroke:#000000;stroke-width:1px;stroke-linecap:butt;stroke-linejoin:miter;stroke-opacity:1"
       d="m 361.12647,372.80928 -2.94931,6.22632 14.09115,3.60471 3.27701,-6.55402 z"
       id="path6139"
       inkscape:connector-curvature="0" />
    <path
       inkscape:connector-curvature="0"
       id="path6141"
       d="m 365.56444,364.14193 -2.75475,6.31482 14.19619,3.16586 3.07213,-6.65252 z"
       style="fill:#cccccc;fill-rule:evenodd;stroke:#000000;stroke-width:1px;stroke-linecap:butt;stroke-linejoin:miter;stroke-opacity:1" />
    <path
       inkscape:connector-curvature="0"
       id="path4168"
       d="m 369.00494,355.19859 -2.94931,6.22632 14.09115,3.60471 3.27701,-6.55402 z"
       style="fill:#cccccc;fill-rule:evenodd;stroke:#000000;stroke-width:1px;stroke-linecap:butt;stroke-linejoin:miter;stroke-opacity:1" />
    <path
       style="fill:#cccccc;fill-rule:evenodd;stroke:#000000;stroke-width:1px;stroke-linecap:butt;stroke-linejoin:miter;stroke-opacity:1"
       d="m 373.44291,346.53124 -2.75475,6.31482 14.19619,3.16586 3.07213,-6.65252 z"
       id="path4170"
       inkscape:connector-curvature="0" />
    <path
       style="fill:#cccccc;fill-rule:evenodd;stroke:#000000;stroke-width:1px;stroke-linecap:butt;stroke-linejoin:miter;stroke-opacity:1"
       d="m 376.41997,337.5879 -2.94931,6.22632 14.09115,3.60471 3.27701,-6.55402 z"
       id="path4172"
       inkscape:connector-curvature="0" />
    <path
       inkscape:connector-curvature="0"
       id="path4174"
       d="m 379.93106,328.92055 -2.75475,6.31482 14.19619,3.16586 3.07213,-6.65252 z"
       style="fill:#cccccc;fill-rule:evenodd;stroke:#000000;stroke-width:1px;stroke-linecap:butt;stroke-linejoin:miter;stroke-opacity:1" />
    <path
       inkscape:connector-curvature="0"
       id="path4180"
       d="m 382.51466,320.84277 -2.58916,6.38449 14.2739,2.79465 2.89763,-6.73036 z"
       style="fill:#cccccc;fill-rule:evenodd;stroke:#000000;stroke-width:1px;stroke-linecap:butt;stroke-linejoin:miter;stroke-opacity:1" />
    <path
       style="fill:#cccccc;fill-rule:evenodd;stroke:#000000;stroke-width:1px;stroke-linecap:butt;stroke-linejoin:miter;stroke-opacity:1"
       d="m 386.45075,312.86315 -2.38987,6.46174 14.35373,2.35052 2.68746,-6.817 z"
       id="path4182"
       inkscape:connector-curvature="0" />
    <path
       style="fill:#cccccc;fill-rule:evenodd;stroke:#000000;stroke-width:1px;stroke-linecap:butt;stroke-linejoin:miter;stroke-opacity:1"
       d="m 389.37524,303.73804 -2.58916,6.38449 14.2739,2.79465 2.89763,-6.73036 z"
       id="path4184"
       inkscape:connector-curvature="0" />
    <path
       inkscape:connector-curvature="0"
       id="path4186"
       d="m 393.31133,294.83154 -2.38987,6.46174 14.35373,2.35052 2.68746,-6.81701 z"
       style="fill:#cccccc;fill-rule:evenodd;stroke:#000000;stroke-width:1px;stroke-linecap:butt;stroke-linejoin:miter;stroke-opacity:1" />
    <path
       inkscape:connector-curvature="0"
       id="path4188"
       d="m 395.77314,285.73287 -2.58917,6.38449 14.27391,2.79465 2.89763,-6.73036 z"
       style="fill:#cccccc;fill-rule:evenodd;stroke:#000000;stroke-width:1px;stroke-linecap:butt;stroke-linejoin:miter;stroke-opacity:1" />
    <path
       style="fill:#cccccc;fill-rule:evenodd;stroke:#000000;stroke-width:1px;stroke-linecap:butt;stroke-linejoin:miter;stroke-opacity:1"
       d="m 399.70923,276.82637 -2.38987,6.46174 14.35373,2.35052 2.68746,-6.817 z"
       id="path4190"
       inkscape:connector-curvature="0" />
    <path
       style="fill:#cccccc;fill-rule:evenodd;stroke:#000000;stroke-width:1px;stroke-linecap:butt;stroke-linejoin:miter;stroke-opacity:1"
       d="m 395.77314,285.73287 -2.58917,6.38449 14.27391,2.79465 2.89763,-6.73036 z"
       id="path4192"
       inkscape:connector-curvature="0" />
    <path
       inkscape:connector-curvature="0"
       id="path4194"
       d="m 399.70923,276.82637 -2.38987,6.46174 14.35373,2.35052 2.68746,-6.817 z"
       style="fill:#cccccc;fill-rule:evenodd;stroke:#000000;stroke-width:1px;stroke-linecap:butt;stroke-linejoin:miter;stroke-opacity:1" />
    <path
       style="fill:#00ff00;fill-rule:evenodd;stroke:#000000;stroke-width:1px;stroke-linecap:butt;stroke-linejoin:miter;stroke-opacity:1"
       d="m 420.11266,206.99258 56.69227,-0.98311 -3.93241,10.48643 -48.49975,0 z"
       id="path4196"
       inkscape:connector-curvature="0" />
  </g>
</svg>
